%TF.GenerationSoftware,KiCad,Pcbnew,8.0.7*%
%TF.CreationDate,2024-12-23T22:20:46+05:30*%
%TF.ProjectId,PCB,5043422e-6b69-4636-9164-5f7063625858,rev?*%
%TF.SameCoordinates,Original*%
%TF.FileFunction,Soldermask,Top*%
%TF.FilePolarity,Negative*%
%FSLAX46Y46*%
G04 Gerber Fmt 4.6, Leading zero omitted, Abs format (unit mm)*
G04 Created by KiCad (PCBNEW 8.0.7) date 2024-12-23 22:20:46*
%MOMM*%
%LPD*%
G01*
G04 APERTURE LIST*
%ADD10C,1.524000*%
%ADD11R,1.800000X1.800000*%
%ADD12C,1.800000*%
%ADD13C,2.400000*%
%ADD14O,2.400000X2.400000*%
%ADD15R,2.000000X2.000000*%
%ADD16C,2.000000*%
G04 APERTURE END LIST*
D10*
%TO.C,U2*%
X169318000Y-105294000D03*
X169318000Y-103008000D03*
X169318000Y-100468000D03*
X169318000Y-97928000D03*
%TD*%
D11*
%TO.C,D1*%
X163281000Y-130892000D03*
D12*
X163281000Y-128352000D03*
%TD*%
D13*
%TO.C,R4*%
X117102000Y-135346000D03*
D14*
X139962000Y-135346000D03*
%TD*%
D10*
%TO.C,U3*%
X163190000Y-69048000D03*
X163190000Y-66508000D03*
X163190000Y-63968000D03*
X163190000Y-61428000D03*
%TD*%
D11*
%TO.C,D2*%
X163281000Y-124882000D03*
D12*
X163281000Y-122342000D03*
%TD*%
D11*
%TO.C,D3*%
X163281000Y-118872000D03*
D12*
X163281000Y-116332000D03*
%TD*%
D13*
%TO.C,R1*%
X117102000Y-124846000D03*
D14*
X139962000Y-124846000D03*
%TD*%
D13*
%TO.C,R3*%
X117602000Y-101346000D03*
D14*
X140462000Y-101346000D03*
%TD*%
D12*
%TO.C,U1*%
X133006000Y-86260000D03*
X133260000Y-45874000D03*
X148500000Y-45874000D03*
X148500000Y-86260000D03*
D10*
X133260000Y-48414000D03*
X133260000Y-50954000D03*
X133260000Y-53494000D03*
X133260000Y-56034000D03*
X133260000Y-58574000D03*
X133260000Y-61114000D03*
X133260000Y-63654000D03*
X133260000Y-66194000D03*
X133260000Y-68734000D03*
X133260000Y-71274000D03*
X133260000Y-73814000D03*
X133260000Y-76354000D03*
X133260000Y-78894000D03*
X133260000Y-81434000D03*
X133260000Y-83974000D03*
X148500000Y-48160000D03*
X148500000Y-50700000D03*
X148500000Y-53240000D03*
X148500000Y-55780000D03*
X148500000Y-58320000D03*
X148500000Y-60860000D03*
X148500000Y-63400000D03*
X148500000Y-65940000D03*
X148500000Y-68480000D03*
X148500000Y-71020000D03*
X148500000Y-73560000D03*
X148500000Y-76100000D03*
X148500000Y-78640000D03*
X148500000Y-81180000D03*
X148500000Y-83720000D03*
%TD*%
D15*
%TO.C,BZ1*%
X159522000Y-141732000D03*
D16*
X167122000Y-141732000D03*
%TD*%
D13*
%TO.C,R2*%
X117602000Y-113346000D03*
D14*
X140462000Y-113346000D03*
%TD*%
M02*
