%TF.GenerationSoftware,KiCad,Pcbnew,8.0.7*%
%TF.CreationDate,2024-12-23T22:21:44+05:30*%
%TF.ProjectId,PCB,5043422e-6b69-4636-9164-5f7063625858,rev?*%
%TF.SameCoordinates,Original*%
%TF.FileFunction,Drillmap*%
%TF.FilePolarity,Positive*%
%FSLAX45Y45*%
G04 Gerber Fmt 4.5, Leading zero omitted, Abs format (unit mm)*
G04 Created by KiCad (PCBNEW 8.0.7) date 2024-12-23 22:21:44*
%MOMM*%
%LPD*%
G01*
G04 APERTURE LIST*
%ADD10C,0.050000*%
%ADD11C,0.200000*%
%ADD12C,0.100000*%
%ADD13C,0.120000*%
G04 APERTURE END LIST*
D10*
X21250000Y-9350000D02*
G75*
G02*
X9194711Y-9350000I-6027645J0D01*
G01*
X9194711Y-9350000D02*
G75*
G02*
X21250000Y-9350000I6027645J0D01*
G01*
D11*
D12*
X16063200Y-7960600D02*
X16093200Y-7990600D01*
X16093200Y-7960600D02*
X16063200Y-7990600D01*
X18247600Y-6893800D02*
X18277600Y-6923800D01*
X18277600Y-6893800D02*
X18247600Y-6923800D01*
X13364100Y-4841400D02*
G75*
G02*
X13287900Y-4841400I-38100J0D01*
G01*
X13287900Y-4841400D02*
G75*
G02*
X13364100Y-4841400I38100J0D01*
G01*
X13364100Y-5095400D02*
G75*
G02*
X13287900Y-5095400I-38100J0D01*
G01*
X13287900Y-5095400D02*
G75*
G02*
X13364100Y-5095400I38100J0D01*
G01*
X13364100Y-5349400D02*
G75*
G02*
X13287900Y-5349400I-38100J0D01*
G01*
X13287900Y-5349400D02*
G75*
G02*
X13364100Y-5349400I38100J0D01*
G01*
X13364100Y-5603400D02*
G75*
G02*
X13287900Y-5603400I-38100J0D01*
G01*
X13287900Y-5603400D02*
G75*
G02*
X13364100Y-5603400I38100J0D01*
G01*
X13364100Y-5857400D02*
G75*
G02*
X13287900Y-5857400I-38100J0D01*
G01*
X13287900Y-5857400D02*
G75*
G02*
X13364100Y-5857400I38100J0D01*
G01*
X13364100Y-6111400D02*
G75*
G02*
X13287900Y-6111400I-38100J0D01*
G01*
X13287900Y-6111400D02*
G75*
G02*
X13364100Y-6111400I38100J0D01*
G01*
X13364100Y-6365400D02*
G75*
G02*
X13287900Y-6365400I-38100J0D01*
G01*
X13287900Y-6365400D02*
G75*
G02*
X13364100Y-6365400I38100J0D01*
G01*
X13364100Y-6619400D02*
G75*
G02*
X13287900Y-6619400I-38100J0D01*
G01*
X13287900Y-6619400D02*
G75*
G02*
X13364100Y-6619400I38100J0D01*
G01*
X13364100Y-6873400D02*
G75*
G02*
X13287900Y-6873400I-38100J0D01*
G01*
X13287900Y-6873400D02*
G75*
G02*
X13364100Y-6873400I38100J0D01*
G01*
X13364100Y-7127400D02*
G75*
G02*
X13287900Y-7127400I-38100J0D01*
G01*
X13287900Y-7127400D02*
G75*
G02*
X13364100Y-7127400I38100J0D01*
G01*
X13364100Y-7381400D02*
G75*
G02*
X13287900Y-7381400I-38100J0D01*
G01*
X13287900Y-7381400D02*
G75*
G02*
X13364100Y-7381400I38100J0D01*
G01*
X13364100Y-7635400D02*
G75*
G02*
X13287900Y-7635400I-38100J0D01*
G01*
X13287900Y-7635400D02*
G75*
G02*
X13364100Y-7635400I38100J0D01*
G01*
X13364100Y-7889400D02*
G75*
G02*
X13287900Y-7889400I-38100J0D01*
G01*
X13287900Y-7889400D02*
G75*
G02*
X13364100Y-7889400I38100J0D01*
G01*
X13364100Y-8143400D02*
G75*
G02*
X13287900Y-8143400I-38100J0D01*
G01*
X13287900Y-8143400D02*
G75*
G02*
X13364100Y-8143400I38100J0D01*
G01*
X13364100Y-8397400D02*
G75*
G02*
X13287900Y-8397400I-38100J0D01*
G01*
X13287900Y-8397400D02*
G75*
G02*
X13364100Y-8397400I38100J0D01*
G01*
X14888100Y-4816000D02*
G75*
G02*
X14811900Y-4816000I-38100J0D01*
G01*
X14811900Y-4816000D02*
G75*
G02*
X14888100Y-4816000I38100J0D01*
G01*
X14888100Y-5070000D02*
G75*
G02*
X14811900Y-5070000I-38100J0D01*
G01*
X14811900Y-5070000D02*
G75*
G02*
X14888100Y-5070000I38100J0D01*
G01*
X14888100Y-5324000D02*
G75*
G02*
X14811900Y-5324000I-38100J0D01*
G01*
X14811900Y-5324000D02*
G75*
G02*
X14888100Y-5324000I38100J0D01*
G01*
X14888100Y-5578000D02*
G75*
G02*
X14811900Y-5578000I-38100J0D01*
G01*
X14811900Y-5578000D02*
G75*
G02*
X14888100Y-5578000I38100J0D01*
G01*
X14888100Y-5832000D02*
G75*
G02*
X14811900Y-5832000I-38100J0D01*
G01*
X14811900Y-5832000D02*
G75*
G02*
X14888100Y-5832000I38100J0D01*
G01*
X14888100Y-6086000D02*
G75*
G02*
X14811900Y-6086000I-38100J0D01*
G01*
X14811900Y-6086000D02*
G75*
G02*
X14888100Y-6086000I38100J0D01*
G01*
X14888100Y-6340000D02*
G75*
G02*
X14811900Y-6340000I-38100J0D01*
G01*
X14811900Y-6340000D02*
G75*
G02*
X14888100Y-6340000I38100J0D01*
G01*
X14888100Y-6594000D02*
G75*
G02*
X14811900Y-6594000I-38100J0D01*
G01*
X14811900Y-6594000D02*
G75*
G02*
X14888100Y-6594000I38100J0D01*
G01*
X14888100Y-6848000D02*
G75*
G02*
X14811900Y-6848000I-38100J0D01*
G01*
X14811900Y-6848000D02*
G75*
G02*
X14888100Y-6848000I38100J0D01*
G01*
X14888100Y-7102000D02*
G75*
G02*
X14811900Y-7102000I-38100J0D01*
G01*
X14811900Y-7102000D02*
G75*
G02*
X14888100Y-7102000I38100J0D01*
G01*
X14888100Y-7356000D02*
G75*
G02*
X14811900Y-7356000I-38100J0D01*
G01*
X14811900Y-7356000D02*
G75*
G02*
X14888100Y-7356000I38100J0D01*
G01*
X14888100Y-7610000D02*
G75*
G02*
X14811900Y-7610000I-38100J0D01*
G01*
X14811900Y-7610000D02*
G75*
G02*
X14888100Y-7610000I38100J0D01*
G01*
X14888100Y-7864000D02*
G75*
G02*
X14811900Y-7864000I-38100J0D01*
G01*
X14811900Y-7864000D02*
G75*
G02*
X14888100Y-7864000I38100J0D01*
G01*
X14888100Y-8118000D02*
G75*
G02*
X14811900Y-8118000I-38100J0D01*
G01*
X14811900Y-8118000D02*
G75*
G02*
X14888100Y-8118000I38100J0D01*
G01*
X14888100Y-8372000D02*
G75*
G02*
X14811900Y-8372000I-38100J0D01*
G01*
X14811900Y-8372000D02*
G75*
G02*
X14888100Y-8372000I38100J0D01*
G01*
X16357100Y-6142800D02*
G75*
G02*
X16280900Y-6142800I-38100J0D01*
G01*
X16280900Y-6142800D02*
G75*
G02*
X16357100Y-6142800I38100J0D01*
G01*
X16357100Y-6396800D02*
G75*
G02*
X16280900Y-6396800I-38100J0D01*
G01*
X16280900Y-6396800D02*
G75*
G02*
X16357100Y-6396800I38100J0D01*
G01*
X16357100Y-6650800D02*
G75*
G02*
X16280900Y-6650800I-38100J0D01*
G01*
X16280900Y-6650800D02*
G75*
G02*
X16357100Y-6650800I38100J0D01*
G01*
X16357100Y-6904800D02*
G75*
G02*
X16280900Y-6904800I-38100J0D01*
G01*
X16280900Y-6904800D02*
G75*
G02*
X16357100Y-6904800I38100J0D01*
G01*
X16969900Y-9792800D02*
G75*
G02*
X16893700Y-9792800I-38100J0D01*
G01*
X16893700Y-9792800D02*
G75*
G02*
X16969900Y-9792800I38100J0D01*
G01*
X16969900Y-10046800D02*
G75*
G02*
X16893700Y-10046800I-38100J0D01*
G01*
X16893700Y-10046800D02*
G75*
G02*
X16969900Y-10046800I38100J0D01*
G01*
X16969900Y-10300800D02*
G75*
G02*
X16893700Y-10300800I-38100J0D01*
G01*
X16893700Y-10300800D02*
G75*
G02*
X16969900Y-10300800I38100J0D01*
G01*
X16969900Y-10529400D02*
G75*
G02*
X16893700Y-10529400I-38100J0D01*
G01*
X16893700Y-10529400D02*
G75*
G02*
X16969900Y-10529400I38100J0D01*
G01*
X16328100Y-11588200D02*
X16328100Y-11678200D01*
X16283100Y-11633200D02*
X16373100Y-11633200D01*
X16328100Y-11842200D02*
X16328100Y-11932200D01*
X16283100Y-11887200D02*
X16373100Y-11887200D01*
X16328100Y-12189200D02*
X16328100Y-12279200D01*
X16283100Y-12234200D02*
X16373100Y-12234200D01*
X16328100Y-12443200D02*
X16328100Y-12533200D01*
X16283100Y-12488200D02*
X16373100Y-12488200D01*
X16328100Y-12790200D02*
X16328100Y-12880200D01*
X16283100Y-12835200D02*
X16373100Y-12835200D01*
X16328100Y-13044200D02*
X16328100Y-13134200D01*
X16283100Y-13089200D02*
X16373100Y-13089200D01*
X15987556Y-14208556D02*
X15987556Y-14137844D01*
X15916844Y-14137844D01*
X15916844Y-14208556D01*
X15987556Y-14208556D01*
X16747556Y-14208556D02*
X16747556Y-14137844D01*
X16676844Y-14137844D01*
X16676844Y-14208556D01*
X16747556Y-14208556D01*
D13*
X11710200Y-12544600D02*
X11770200Y-12484600D01*
X11710200Y-12424600D01*
X11650200Y-12484600D01*
X11710200Y-12544600D01*
X11710200Y-13594600D02*
X11770200Y-13534600D01*
X11710200Y-13474600D01*
X11650200Y-13534600D01*
X11710200Y-13594600D01*
X11760200Y-10194600D02*
X11820200Y-10134600D01*
X11760200Y-10074600D01*
X11700200Y-10134600D01*
X11760200Y-10194600D01*
X11760200Y-11394600D02*
X11820200Y-11334600D01*
X11760200Y-11274600D01*
X11700200Y-11334600D01*
X11760200Y-11394600D01*
X13996200Y-12544600D02*
X14056200Y-12484600D01*
X13996200Y-12424600D01*
X13936200Y-12484600D01*
X13996200Y-12544600D01*
X13996200Y-13594600D02*
X14056200Y-13534600D01*
X13996200Y-13474600D01*
X13936200Y-13534600D01*
X13996200Y-13594600D01*
X14046200Y-10194600D02*
X14106200Y-10134600D01*
X14046200Y-10074600D01*
X13986200Y-10134600D01*
X14046200Y-10194600D01*
X14046200Y-11394600D02*
X14106200Y-11334600D01*
X14046200Y-11274600D01*
X13986200Y-11334600D01*
X14046200Y-11394600D01*
D11*
X9452988Y-15691628D02*
X9452988Y-15491628D01*
X9452988Y-15491628D02*
X9500607Y-15491628D01*
X9500607Y-15491628D02*
X9529178Y-15501152D01*
X9529178Y-15501152D02*
X9548226Y-15520200D01*
X9548226Y-15520200D02*
X9557750Y-15539247D01*
X9557750Y-15539247D02*
X9567273Y-15577343D01*
X9567273Y-15577343D02*
X9567273Y-15605914D01*
X9567273Y-15605914D02*
X9557750Y-15644009D01*
X9557750Y-15644009D02*
X9548226Y-15663057D01*
X9548226Y-15663057D02*
X9529178Y-15682105D01*
X9529178Y-15682105D02*
X9500607Y-15691628D01*
X9500607Y-15691628D02*
X9452988Y-15691628D01*
X9652988Y-15691628D02*
X9652988Y-15558295D01*
X9652988Y-15596390D02*
X9662511Y-15577343D01*
X9662511Y-15577343D02*
X9672035Y-15567819D01*
X9672035Y-15567819D02*
X9691083Y-15558295D01*
X9691083Y-15558295D02*
X9710131Y-15558295D01*
X9776797Y-15691628D02*
X9776797Y-15558295D01*
X9776797Y-15491628D02*
X9767273Y-15501152D01*
X9767273Y-15501152D02*
X9776797Y-15510676D01*
X9776797Y-15510676D02*
X9786321Y-15501152D01*
X9786321Y-15501152D02*
X9776797Y-15491628D01*
X9776797Y-15491628D02*
X9776797Y-15510676D01*
X9900607Y-15691628D02*
X9881559Y-15682105D01*
X9881559Y-15682105D02*
X9872035Y-15663057D01*
X9872035Y-15663057D02*
X9872035Y-15491628D01*
X10005369Y-15691628D02*
X9986321Y-15682105D01*
X9986321Y-15682105D02*
X9976797Y-15663057D01*
X9976797Y-15663057D02*
X9976797Y-15491628D01*
X10233940Y-15691628D02*
X10233940Y-15491628D01*
X10233940Y-15491628D02*
X10300607Y-15634485D01*
X10300607Y-15634485D02*
X10367273Y-15491628D01*
X10367273Y-15491628D02*
X10367273Y-15691628D01*
X10548226Y-15691628D02*
X10548226Y-15586866D01*
X10548226Y-15586866D02*
X10538702Y-15567819D01*
X10538702Y-15567819D02*
X10519654Y-15558295D01*
X10519654Y-15558295D02*
X10481559Y-15558295D01*
X10481559Y-15558295D02*
X10462511Y-15567819D01*
X10548226Y-15682105D02*
X10529178Y-15691628D01*
X10529178Y-15691628D02*
X10481559Y-15691628D01*
X10481559Y-15691628D02*
X10462511Y-15682105D01*
X10462511Y-15682105D02*
X10452988Y-15663057D01*
X10452988Y-15663057D02*
X10452988Y-15644009D01*
X10452988Y-15644009D02*
X10462511Y-15624962D01*
X10462511Y-15624962D02*
X10481559Y-15615438D01*
X10481559Y-15615438D02*
X10529178Y-15615438D01*
X10529178Y-15615438D02*
X10548226Y-15605914D01*
X10643464Y-15558295D02*
X10643464Y-15758295D01*
X10643464Y-15567819D02*
X10662511Y-15558295D01*
X10662511Y-15558295D02*
X10700607Y-15558295D01*
X10700607Y-15558295D02*
X10719654Y-15567819D01*
X10719654Y-15567819D02*
X10729178Y-15577343D01*
X10729178Y-15577343D02*
X10738702Y-15596390D01*
X10738702Y-15596390D02*
X10738702Y-15653533D01*
X10738702Y-15653533D02*
X10729178Y-15672581D01*
X10729178Y-15672581D02*
X10719654Y-15682105D01*
X10719654Y-15682105D02*
X10700607Y-15691628D01*
X10700607Y-15691628D02*
X10662511Y-15691628D01*
X10662511Y-15691628D02*
X10643464Y-15682105D01*
X10824416Y-15672581D02*
X10833940Y-15682105D01*
X10833940Y-15682105D02*
X10824416Y-15691628D01*
X10824416Y-15691628D02*
X10814892Y-15682105D01*
X10814892Y-15682105D02*
X10824416Y-15672581D01*
X10824416Y-15672581D02*
X10824416Y-15691628D01*
X10824416Y-15567819D02*
X10833940Y-15577343D01*
X10833940Y-15577343D02*
X10824416Y-15586866D01*
X10824416Y-15586866D02*
X10814892Y-15577343D01*
X10814892Y-15577343D02*
X10824416Y-15567819D01*
X10824416Y-15567819D02*
X10824416Y-15586866D01*
D12*
X9162211Y-16005145D02*
X9192211Y-16035145D01*
X9192211Y-16005145D02*
X9162211Y-16035145D01*
D11*
X9491083Y-15911628D02*
X9510131Y-15911628D01*
X9510131Y-15911628D02*
X9529178Y-15921152D01*
X9529178Y-15921152D02*
X9538702Y-15930676D01*
X9538702Y-15930676D02*
X9548226Y-15949724D01*
X9548226Y-15949724D02*
X9557750Y-15987819D01*
X9557750Y-15987819D02*
X9557750Y-16035438D01*
X9557750Y-16035438D02*
X9548226Y-16073533D01*
X9548226Y-16073533D02*
X9538702Y-16092581D01*
X9538702Y-16092581D02*
X9529178Y-16102105D01*
X9529178Y-16102105D02*
X9510131Y-16111628D01*
X9510131Y-16111628D02*
X9491083Y-16111628D01*
X9491083Y-16111628D02*
X9472035Y-16102105D01*
X9472035Y-16102105D02*
X9462511Y-16092581D01*
X9462511Y-16092581D02*
X9452988Y-16073533D01*
X9452988Y-16073533D02*
X9443464Y-16035438D01*
X9443464Y-16035438D02*
X9443464Y-15987819D01*
X9443464Y-15987819D02*
X9452988Y-15949724D01*
X9452988Y-15949724D02*
X9462511Y-15930676D01*
X9462511Y-15930676D02*
X9472035Y-15921152D01*
X9472035Y-15921152D02*
X9491083Y-15911628D01*
X9643464Y-16092581D02*
X9652988Y-16102105D01*
X9652988Y-16102105D02*
X9643464Y-16111628D01*
X9643464Y-16111628D02*
X9633940Y-16102105D01*
X9633940Y-16102105D02*
X9643464Y-16092581D01*
X9643464Y-16092581D02*
X9643464Y-16111628D01*
X9719654Y-15911628D02*
X9843464Y-15911628D01*
X9843464Y-15911628D02*
X9776797Y-15987819D01*
X9776797Y-15987819D02*
X9805369Y-15987819D01*
X9805369Y-15987819D02*
X9824416Y-15997343D01*
X9824416Y-15997343D02*
X9833940Y-16006866D01*
X9833940Y-16006866D02*
X9843464Y-16025914D01*
X9843464Y-16025914D02*
X9843464Y-16073533D01*
X9843464Y-16073533D02*
X9833940Y-16092581D01*
X9833940Y-16092581D02*
X9824416Y-16102105D01*
X9824416Y-16102105D02*
X9805369Y-16111628D01*
X9805369Y-16111628D02*
X9748226Y-16111628D01*
X9748226Y-16111628D02*
X9729178Y-16102105D01*
X9729178Y-16102105D02*
X9719654Y-16092581D01*
X9967273Y-15911628D02*
X9986321Y-15911628D01*
X9986321Y-15911628D02*
X10005369Y-15921152D01*
X10005369Y-15921152D02*
X10014892Y-15930676D01*
X10014892Y-15930676D02*
X10024416Y-15949724D01*
X10024416Y-15949724D02*
X10033940Y-15987819D01*
X10033940Y-15987819D02*
X10033940Y-16035438D01*
X10033940Y-16035438D02*
X10024416Y-16073533D01*
X10024416Y-16073533D02*
X10014892Y-16092581D01*
X10014892Y-16092581D02*
X10005369Y-16102105D01*
X10005369Y-16102105D02*
X9986321Y-16111628D01*
X9986321Y-16111628D02*
X9967273Y-16111628D01*
X9967273Y-16111628D02*
X9948226Y-16102105D01*
X9948226Y-16102105D02*
X9938702Y-16092581D01*
X9938702Y-16092581D02*
X9929178Y-16073533D01*
X9929178Y-16073533D02*
X9919654Y-16035438D01*
X9919654Y-16035438D02*
X9919654Y-15987819D01*
X9919654Y-15987819D02*
X9929178Y-15949724D01*
X9929178Y-15949724D02*
X9938702Y-15930676D01*
X9938702Y-15930676D02*
X9948226Y-15921152D01*
X9948226Y-15921152D02*
X9967273Y-15911628D01*
X10157750Y-15911628D02*
X10176797Y-15911628D01*
X10176797Y-15911628D02*
X10195845Y-15921152D01*
X10195845Y-15921152D02*
X10205369Y-15930676D01*
X10205369Y-15930676D02*
X10214892Y-15949724D01*
X10214892Y-15949724D02*
X10224416Y-15987819D01*
X10224416Y-15987819D02*
X10224416Y-16035438D01*
X10224416Y-16035438D02*
X10214892Y-16073533D01*
X10214892Y-16073533D02*
X10205369Y-16092581D01*
X10205369Y-16092581D02*
X10195845Y-16102105D01*
X10195845Y-16102105D02*
X10176797Y-16111628D01*
X10176797Y-16111628D02*
X10157750Y-16111628D01*
X10157750Y-16111628D02*
X10138702Y-16102105D01*
X10138702Y-16102105D02*
X10129178Y-16092581D01*
X10129178Y-16092581D02*
X10119654Y-16073533D01*
X10119654Y-16073533D02*
X10110131Y-16035438D01*
X10110131Y-16035438D02*
X10110131Y-15987819D01*
X10110131Y-15987819D02*
X10119654Y-15949724D01*
X10119654Y-15949724D02*
X10129178Y-15930676D01*
X10129178Y-15930676D02*
X10138702Y-15921152D01*
X10138702Y-15921152D02*
X10157750Y-15911628D01*
X10310131Y-16111628D02*
X10310131Y-15978295D01*
X10310131Y-15997343D02*
X10319654Y-15987819D01*
X10319654Y-15987819D02*
X10338702Y-15978295D01*
X10338702Y-15978295D02*
X10367273Y-15978295D01*
X10367273Y-15978295D02*
X10386321Y-15987819D01*
X10386321Y-15987819D02*
X10395845Y-16006866D01*
X10395845Y-16006866D02*
X10395845Y-16111628D01*
X10395845Y-16006866D02*
X10405369Y-15987819D01*
X10405369Y-15987819D02*
X10424416Y-15978295D01*
X10424416Y-15978295D02*
X10452988Y-15978295D01*
X10452988Y-15978295D02*
X10472035Y-15987819D01*
X10472035Y-15987819D02*
X10481559Y-16006866D01*
X10481559Y-16006866D02*
X10481559Y-16111628D01*
X10576797Y-16111628D02*
X10576797Y-15978295D01*
X10576797Y-15997343D02*
X10586321Y-15987819D01*
X10586321Y-15987819D02*
X10605369Y-15978295D01*
X10605369Y-15978295D02*
X10633940Y-15978295D01*
X10633940Y-15978295D02*
X10652988Y-15987819D01*
X10652988Y-15987819D02*
X10662512Y-16006866D01*
X10662512Y-16006866D02*
X10662512Y-16111628D01*
X10662512Y-16006866D02*
X10672035Y-15987819D01*
X10672035Y-15987819D02*
X10691083Y-15978295D01*
X10691083Y-15978295D02*
X10719654Y-15978295D01*
X10719654Y-15978295D02*
X10738702Y-15987819D01*
X10738702Y-15987819D02*
X10748226Y-16006866D01*
X10748226Y-16006866D02*
X10748226Y-16111628D01*
X11138702Y-15902105D02*
X10967274Y-16159247D01*
X11395845Y-15911628D02*
X11414893Y-15911628D01*
X11414893Y-15911628D02*
X11433940Y-15921152D01*
X11433940Y-15921152D02*
X11443464Y-15930676D01*
X11443464Y-15930676D02*
X11452988Y-15949724D01*
X11452988Y-15949724D02*
X11462512Y-15987819D01*
X11462512Y-15987819D02*
X11462512Y-16035438D01*
X11462512Y-16035438D02*
X11452988Y-16073533D01*
X11452988Y-16073533D02*
X11443464Y-16092581D01*
X11443464Y-16092581D02*
X11433940Y-16102105D01*
X11433940Y-16102105D02*
X11414893Y-16111628D01*
X11414893Y-16111628D02*
X11395845Y-16111628D01*
X11395845Y-16111628D02*
X11376797Y-16102105D01*
X11376797Y-16102105D02*
X11367273Y-16092581D01*
X11367273Y-16092581D02*
X11357750Y-16073533D01*
X11357750Y-16073533D02*
X11348226Y-16035438D01*
X11348226Y-16035438D02*
X11348226Y-15987819D01*
X11348226Y-15987819D02*
X11357750Y-15949724D01*
X11357750Y-15949724D02*
X11367273Y-15930676D01*
X11367273Y-15930676D02*
X11376797Y-15921152D01*
X11376797Y-15921152D02*
X11395845Y-15911628D01*
X11548226Y-16092581D02*
X11557750Y-16102105D01*
X11557750Y-16102105D02*
X11548226Y-16111628D01*
X11548226Y-16111628D02*
X11538702Y-16102105D01*
X11538702Y-16102105D02*
X11548226Y-16092581D01*
X11548226Y-16092581D02*
X11548226Y-16111628D01*
X11681559Y-15911628D02*
X11700607Y-15911628D01*
X11700607Y-15911628D02*
X11719654Y-15921152D01*
X11719654Y-15921152D02*
X11729178Y-15930676D01*
X11729178Y-15930676D02*
X11738702Y-15949724D01*
X11738702Y-15949724D02*
X11748226Y-15987819D01*
X11748226Y-15987819D02*
X11748226Y-16035438D01*
X11748226Y-16035438D02*
X11738702Y-16073533D01*
X11738702Y-16073533D02*
X11729178Y-16092581D01*
X11729178Y-16092581D02*
X11719654Y-16102105D01*
X11719654Y-16102105D02*
X11700607Y-16111628D01*
X11700607Y-16111628D02*
X11681559Y-16111628D01*
X11681559Y-16111628D02*
X11662512Y-16102105D01*
X11662512Y-16102105D02*
X11652988Y-16092581D01*
X11652988Y-16092581D02*
X11643464Y-16073533D01*
X11643464Y-16073533D02*
X11633940Y-16035438D01*
X11633940Y-16035438D02*
X11633940Y-15987819D01*
X11633940Y-15987819D02*
X11643464Y-15949724D01*
X11643464Y-15949724D02*
X11652988Y-15930676D01*
X11652988Y-15930676D02*
X11662512Y-15921152D01*
X11662512Y-15921152D02*
X11681559Y-15911628D01*
X11938702Y-16111628D02*
X11824416Y-16111628D01*
X11881559Y-16111628D02*
X11881559Y-15911628D01*
X11881559Y-15911628D02*
X11862512Y-15940200D01*
X11862512Y-15940200D02*
X11843464Y-15959247D01*
X11843464Y-15959247D02*
X11824416Y-15968771D01*
X12129178Y-16111628D02*
X12014893Y-16111628D01*
X12072035Y-16111628D02*
X12072035Y-15911628D01*
X12072035Y-15911628D02*
X12052988Y-15940200D01*
X12052988Y-15940200D02*
X12033940Y-15959247D01*
X12033940Y-15959247D02*
X12014893Y-15968771D01*
X12243464Y-15997343D02*
X12224416Y-15987819D01*
X12224416Y-15987819D02*
X12214893Y-15978295D01*
X12214893Y-15978295D02*
X12205369Y-15959247D01*
X12205369Y-15959247D02*
X12205369Y-15949724D01*
X12205369Y-15949724D02*
X12214893Y-15930676D01*
X12214893Y-15930676D02*
X12224416Y-15921152D01*
X12224416Y-15921152D02*
X12243464Y-15911628D01*
X12243464Y-15911628D02*
X12281559Y-15911628D01*
X12281559Y-15911628D02*
X12300607Y-15921152D01*
X12300607Y-15921152D02*
X12310131Y-15930676D01*
X12310131Y-15930676D02*
X12319654Y-15949724D01*
X12319654Y-15949724D02*
X12319654Y-15959247D01*
X12319654Y-15959247D02*
X12310131Y-15978295D01*
X12310131Y-15978295D02*
X12300607Y-15987819D01*
X12300607Y-15987819D02*
X12281559Y-15997343D01*
X12281559Y-15997343D02*
X12243464Y-15997343D01*
X12243464Y-15997343D02*
X12224416Y-16006866D01*
X12224416Y-16006866D02*
X12214893Y-16016390D01*
X12214893Y-16016390D02*
X12205369Y-16035438D01*
X12205369Y-16035438D02*
X12205369Y-16073533D01*
X12205369Y-16073533D02*
X12214893Y-16092581D01*
X12214893Y-16092581D02*
X12224416Y-16102105D01*
X12224416Y-16102105D02*
X12243464Y-16111628D01*
X12243464Y-16111628D02*
X12281559Y-16111628D01*
X12281559Y-16111628D02*
X12300607Y-16102105D01*
X12300607Y-16102105D02*
X12310131Y-16092581D01*
X12310131Y-16092581D02*
X12319654Y-16073533D01*
X12319654Y-16073533D02*
X12319654Y-16035438D01*
X12319654Y-16035438D02*
X12310131Y-16016390D01*
X12310131Y-16016390D02*
X12300607Y-16006866D01*
X12300607Y-16006866D02*
X12281559Y-15997343D01*
X12395845Y-15911628D02*
X12395845Y-15949724D01*
X12472035Y-15911628D02*
X12472035Y-15949724D01*
X12767274Y-16187819D02*
X12757750Y-16178295D01*
X12757750Y-16178295D02*
X12738702Y-16149724D01*
X12738702Y-16149724D02*
X12729178Y-16130676D01*
X12729178Y-16130676D02*
X12719655Y-16102105D01*
X12719655Y-16102105D02*
X12710131Y-16054485D01*
X12710131Y-16054485D02*
X12710131Y-16016390D01*
X12710131Y-16016390D02*
X12719655Y-15968771D01*
X12719655Y-15968771D02*
X12729178Y-15940200D01*
X12729178Y-15940200D02*
X12738702Y-15921152D01*
X12738702Y-15921152D02*
X12757750Y-15892581D01*
X12757750Y-15892581D02*
X12767274Y-15883057D01*
X12833940Y-15930676D02*
X12843464Y-15921152D01*
X12843464Y-15921152D02*
X12862512Y-15911628D01*
X12862512Y-15911628D02*
X12910131Y-15911628D01*
X12910131Y-15911628D02*
X12929178Y-15921152D01*
X12929178Y-15921152D02*
X12938702Y-15930676D01*
X12938702Y-15930676D02*
X12948226Y-15949724D01*
X12948226Y-15949724D02*
X12948226Y-15968771D01*
X12948226Y-15968771D02*
X12938702Y-15997343D01*
X12938702Y-15997343D02*
X12824416Y-16111628D01*
X12824416Y-16111628D02*
X12948226Y-16111628D01*
X13186321Y-16111628D02*
X13186321Y-15911628D01*
X13272036Y-16111628D02*
X13272036Y-16006866D01*
X13272036Y-16006866D02*
X13262512Y-15987819D01*
X13262512Y-15987819D02*
X13243464Y-15978295D01*
X13243464Y-15978295D02*
X13214893Y-15978295D01*
X13214893Y-15978295D02*
X13195845Y-15987819D01*
X13195845Y-15987819D02*
X13186321Y-15997343D01*
X13395845Y-16111628D02*
X13376797Y-16102105D01*
X13376797Y-16102105D02*
X13367274Y-16092581D01*
X13367274Y-16092581D02*
X13357750Y-16073533D01*
X13357750Y-16073533D02*
X13357750Y-16016390D01*
X13357750Y-16016390D02*
X13367274Y-15997343D01*
X13367274Y-15997343D02*
X13376797Y-15987819D01*
X13376797Y-15987819D02*
X13395845Y-15978295D01*
X13395845Y-15978295D02*
X13424417Y-15978295D01*
X13424417Y-15978295D02*
X13443464Y-15987819D01*
X13443464Y-15987819D02*
X13452988Y-15997343D01*
X13452988Y-15997343D02*
X13462512Y-16016390D01*
X13462512Y-16016390D02*
X13462512Y-16073533D01*
X13462512Y-16073533D02*
X13452988Y-16092581D01*
X13452988Y-16092581D02*
X13443464Y-16102105D01*
X13443464Y-16102105D02*
X13424417Y-16111628D01*
X13424417Y-16111628D02*
X13395845Y-16111628D01*
X13576797Y-16111628D02*
X13557750Y-16102105D01*
X13557750Y-16102105D02*
X13548226Y-16083057D01*
X13548226Y-16083057D02*
X13548226Y-15911628D01*
X13729178Y-16102105D02*
X13710131Y-16111628D01*
X13710131Y-16111628D02*
X13672036Y-16111628D01*
X13672036Y-16111628D02*
X13652988Y-16102105D01*
X13652988Y-16102105D02*
X13643464Y-16083057D01*
X13643464Y-16083057D02*
X13643464Y-16006866D01*
X13643464Y-16006866D02*
X13652988Y-15987819D01*
X13652988Y-15987819D02*
X13672036Y-15978295D01*
X13672036Y-15978295D02*
X13710131Y-15978295D01*
X13710131Y-15978295D02*
X13729178Y-15987819D01*
X13729178Y-15987819D02*
X13738702Y-16006866D01*
X13738702Y-16006866D02*
X13738702Y-16025914D01*
X13738702Y-16025914D02*
X13643464Y-16044962D01*
X13814893Y-16102105D02*
X13833940Y-16111628D01*
X13833940Y-16111628D02*
X13872036Y-16111628D01*
X13872036Y-16111628D02*
X13891083Y-16102105D01*
X13891083Y-16102105D02*
X13900607Y-16083057D01*
X13900607Y-16083057D02*
X13900607Y-16073533D01*
X13900607Y-16073533D02*
X13891083Y-16054485D01*
X13891083Y-16054485D02*
X13872036Y-16044962D01*
X13872036Y-16044962D02*
X13843464Y-16044962D01*
X13843464Y-16044962D02*
X13824417Y-16035438D01*
X13824417Y-16035438D02*
X13814893Y-16016390D01*
X13814893Y-16016390D02*
X13814893Y-16006866D01*
X13814893Y-16006866D02*
X13824417Y-15987819D01*
X13824417Y-15987819D02*
X13843464Y-15978295D01*
X13843464Y-15978295D02*
X13872036Y-15978295D01*
X13872036Y-15978295D02*
X13891083Y-15987819D01*
X13967274Y-16187819D02*
X13976798Y-16178295D01*
X13976798Y-16178295D02*
X13995845Y-16149724D01*
X13995845Y-16149724D02*
X14005369Y-16130676D01*
X14005369Y-16130676D02*
X14014893Y-16102105D01*
X14014893Y-16102105D02*
X14024417Y-16054485D01*
X14024417Y-16054485D02*
X14024417Y-16016390D01*
X14024417Y-16016390D02*
X14014893Y-15968771D01*
X14014893Y-15968771D02*
X14005369Y-15940200D01*
X14005369Y-15940200D02*
X13995845Y-15921152D01*
X13995845Y-15921152D02*
X13976798Y-15892581D01*
X13976798Y-15892581D02*
X13967274Y-15883057D01*
D12*
X9192211Y-16284145D02*
G75*
G02*
X9116011Y-16284145I-38100J0D01*
G01*
X9116011Y-16284145D02*
G75*
G02*
X9192211Y-16284145I38100J0D01*
G01*
D11*
X9491083Y-16175628D02*
X9510131Y-16175628D01*
X9510131Y-16175628D02*
X9529178Y-16185152D01*
X9529178Y-16185152D02*
X9538702Y-16194676D01*
X9538702Y-16194676D02*
X9548226Y-16213724D01*
X9548226Y-16213724D02*
X9557750Y-16251819D01*
X9557750Y-16251819D02*
X9557750Y-16299438D01*
X9557750Y-16299438D02*
X9548226Y-16337533D01*
X9548226Y-16337533D02*
X9538702Y-16356581D01*
X9538702Y-16356581D02*
X9529178Y-16366105D01*
X9529178Y-16366105D02*
X9510131Y-16375628D01*
X9510131Y-16375628D02*
X9491083Y-16375628D01*
X9491083Y-16375628D02*
X9472035Y-16366105D01*
X9472035Y-16366105D02*
X9462511Y-16356581D01*
X9462511Y-16356581D02*
X9452988Y-16337533D01*
X9452988Y-16337533D02*
X9443464Y-16299438D01*
X9443464Y-16299438D02*
X9443464Y-16251819D01*
X9443464Y-16251819D02*
X9452988Y-16213724D01*
X9452988Y-16213724D02*
X9462511Y-16194676D01*
X9462511Y-16194676D02*
X9472035Y-16185152D01*
X9472035Y-16185152D02*
X9491083Y-16175628D01*
X9643464Y-16356581D02*
X9652988Y-16366105D01*
X9652988Y-16366105D02*
X9643464Y-16375628D01*
X9643464Y-16375628D02*
X9633940Y-16366105D01*
X9633940Y-16366105D02*
X9643464Y-16356581D01*
X9643464Y-16356581D02*
X9643464Y-16375628D01*
X9719654Y-16175628D02*
X9852988Y-16175628D01*
X9852988Y-16175628D02*
X9767273Y-16375628D01*
X10014892Y-16175628D02*
X9976797Y-16175628D01*
X9976797Y-16175628D02*
X9957750Y-16185152D01*
X9957750Y-16185152D02*
X9948226Y-16194676D01*
X9948226Y-16194676D02*
X9929178Y-16223247D01*
X9929178Y-16223247D02*
X9919654Y-16261343D01*
X9919654Y-16261343D02*
X9919654Y-16337533D01*
X9919654Y-16337533D02*
X9929178Y-16356581D01*
X9929178Y-16356581D02*
X9938702Y-16366105D01*
X9938702Y-16366105D02*
X9957750Y-16375628D01*
X9957750Y-16375628D02*
X9995845Y-16375628D01*
X9995845Y-16375628D02*
X10014892Y-16366105D01*
X10014892Y-16366105D02*
X10024416Y-16356581D01*
X10024416Y-16356581D02*
X10033940Y-16337533D01*
X10033940Y-16337533D02*
X10033940Y-16289914D01*
X10033940Y-16289914D02*
X10024416Y-16270866D01*
X10024416Y-16270866D02*
X10014892Y-16261343D01*
X10014892Y-16261343D02*
X9995845Y-16251819D01*
X9995845Y-16251819D02*
X9957750Y-16251819D01*
X9957750Y-16251819D02*
X9938702Y-16261343D01*
X9938702Y-16261343D02*
X9929178Y-16270866D01*
X9929178Y-16270866D02*
X9919654Y-16289914D01*
X10110131Y-16194676D02*
X10119654Y-16185152D01*
X10119654Y-16185152D02*
X10138702Y-16175628D01*
X10138702Y-16175628D02*
X10186321Y-16175628D01*
X10186321Y-16175628D02*
X10205369Y-16185152D01*
X10205369Y-16185152D02*
X10214892Y-16194676D01*
X10214892Y-16194676D02*
X10224416Y-16213724D01*
X10224416Y-16213724D02*
X10224416Y-16232771D01*
X10224416Y-16232771D02*
X10214892Y-16261343D01*
X10214892Y-16261343D02*
X10100607Y-16375628D01*
X10100607Y-16375628D02*
X10224416Y-16375628D01*
X10310131Y-16375628D02*
X10310131Y-16242295D01*
X10310131Y-16261343D02*
X10319654Y-16251819D01*
X10319654Y-16251819D02*
X10338702Y-16242295D01*
X10338702Y-16242295D02*
X10367273Y-16242295D01*
X10367273Y-16242295D02*
X10386321Y-16251819D01*
X10386321Y-16251819D02*
X10395845Y-16270866D01*
X10395845Y-16270866D02*
X10395845Y-16375628D01*
X10395845Y-16270866D02*
X10405369Y-16251819D01*
X10405369Y-16251819D02*
X10424416Y-16242295D01*
X10424416Y-16242295D02*
X10452988Y-16242295D01*
X10452988Y-16242295D02*
X10472035Y-16251819D01*
X10472035Y-16251819D02*
X10481559Y-16270866D01*
X10481559Y-16270866D02*
X10481559Y-16375628D01*
X10576797Y-16375628D02*
X10576797Y-16242295D01*
X10576797Y-16261343D02*
X10586321Y-16251819D01*
X10586321Y-16251819D02*
X10605369Y-16242295D01*
X10605369Y-16242295D02*
X10633940Y-16242295D01*
X10633940Y-16242295D02*
X10652988Y-16251819D01*
X10652988Y-16251819D02*
X10662512Y-16270866D01*
X10662512Y-16270866D02*
X10662512Y-16375628D01*
X10662512Y-16270866D02*
X10672035Y-16251819D01*
X10672035Y-16251819D02*
X10691083Y-16242295D01*
X10691083Y-16242295D02*
X10719654Y-16242295D01*
X10719654Y-16242295D02*
X10738702Y-16251819D01*
X10738702Y-16251819D02*
X10748226Y-16270866D01*
X10748226Y-16270866D02*
X10748226Y-16375628D01*
X11138702Y-16166105D02*
X10967274Y-16423247D01*
X11395845Y-16175628D02*
X11414893Y-16175628D01*
X11414893Y-16175628D02*
X11433940Y-16185152D01*
X11433940Y-16185152D02*
X11443464Y-16194676D01*
X11443464Y-16194676D02*
X11452988Y-16213724D01*
X11452988Y-16213724D02*
X11462512Y-16251819D01*
X11462512Y-16251819D02*
X11462512Y-16299438D01*
X11462512Y-16299438D02*
X11452988Y-16337533D01*
X11452988Y-16337533D02*
X11443464Y-16356581D01*
X11443464Y-16356581D02*
X11433940Y-16366105D01*
X11433940Y-16366105D02*
X11414893Y-16375628D01*
X11414893Y-16375628D02*
X11395845Y-16375628D01*
X11395845Y-16375628D02*
X11376797Y-16366105D01*
X11376797Y-16366105D02*
X11367273Y-16356581D01*
X11367273Y-16356581D02*
X11357750Y-16337533D01*
X11357750Y-16337533D02*
X11348226Y-16299438D01*
X11348226Y-16299438D02*
X11348226Y-16251819D01*
X11348226Y-16251819D02*
X11357750Y-16213724D01*
X11357750Y-16213724D02*
X11367273Y-16194676D01*
X11367273Y-16194676D02*
X11376797Y-16185152D01*
X11376797Y-16185152D02*
X11395845Y-16175628D01*
X11548226Y-16356581D02*
X11557750Y-16366105D01*
X11557750Y-16366105D02*
X11548226Y-16375628D01*
X11548226Y-16375628D02*
X11538702Y-16366105D01*
X11538702Y-16366105D02*
X11548226Y-16356581D01*
X11548226Y-16356581D02*
X11548226Y-16375628D01*
X11681559Y-16175628D02*
X11700607Y-16175628D01*
X11700607Y-16175628D02*
X11719654Y-16185152D01*
X11719654Y-16185152D02*
X11729178Y-16194676D01*
X11729178Y-16194676D02*
X11738702Y-16213724D01*
X11738702Y-16213724D02*
X11748226Y-16251819D01*
X11748226Y-16251819D02*
X11748226Y-16299438D01*
X11748226Y-16299438D02*
X11738702Y-16337533D01*
X11738702Y-16337533D02*
X11729178Y-16356581D01*
X11729178Y-16356581D02*
X11719654Y-16366105D01*
X11719654Y-16366105D02*
X11700607Y-16375628D01*
X11700607Y-16375628D02*
X11681559Y-16375628D01*
X11681559Y-16375628D02*
X11662512Y-16366105D01*
X11662512Y-16366105D02*
X11652988Y-16356581D01*
X11652988Y-16356581D02*
X11643464Y-16337533D01*
X11643464Y-16337533D02*
X11633940Y-16299438D01*
X11633940Y-16299438D02*
X11633940Y-16251819D01*
X11633940Y-16251819D02*
X11643464Y-16213724D01*
X11643464Y-16213724D02*
X11652988Y-16194676D01*
X11652988Y-16194676D02*
X11662512Y-16185152D01*
X11662512Y-16185152D02*
X11681559Y-16175628D01*
X11814893Y-16175628D02*
X11938702Y-16175628D01*
X11938702Y-16175628D02*
X11872035Y-16251819D01*
X11872035Y-16251819D02*
X11900607Y-16251819D01*
X11900607Y-16251819D02*
X11919654Y-16261343D01*
X11919654Y-16261343D02*
X11929178Y-16270866D01*
X11929178Y-16270866D02*
X11938702Y-16289914D01*
X11938702Y-16289914D02*
X11938702Y-16337533D01*
X11938702Y-16337533D02*
X11929178Y-16356581D01*
X11929178Y-16356581D02*
X11919654Y-16366105D01*
X11919654Y-16366105D02*
X11900607Y-16375628D01*
X11900607Y-16375628D02*
X11843464Y-16375628D01*
X11843464Y-16375628D02*
X11824416Y-16366105D01*
X11824416Y-16366105D02*
X11814893Y-16356581D01*
X12062512Y-16175628D02*
X12081559Y-16175628D01*
X12081559Y-16175628D02*
X12100607Y-16185152D01*
X12100607Y-16185152D02*
X12110131Y-16194676D01*
X12110131Y-16194676D02*
X12119654Y-16213724D01*
X12119654Y-16213724D02*
X12129178Y-16251819D01*
X12129178Y-16251819D02*
X12129178Y-16299438D01*
X12129178Y-16299438D02*
X12119654Y-16337533D01*
X12119654Y-16337533D02*
X12110131Y-16356581D01*
X12110131Y-16356581D02*
X12100607Y-16366105D01*
X12100607Y-16366105D02*
X12081559Y-16375628D01*
X12081559Y-16375628D02*
X12062512Y-16375628D01*
X12062512Y-16375628D02*
X12043464Y-16366105D01*
X12043464Y-16366105D02*
X12033940Y-16356581D01*
X12033940Y-16356581D02*
X12024416Y-16337533D01*
X12024416Y-16337533D02*
X12014893Y-16299438D01*
X12014893Y-16299438D02*
X12014893Y-16251819D01*
X12014893Y-16251819D02*
X12024416Y-16213724D01*
X12024416Y-16213724D02*
X12033940Y-16194676D01*
X12033940Y-16194676D02*
X12043464Y-16185152D01*
X12043464Y-16185152D02*
X12062512Y-16175628D01*
X12252988Y-16175628D02*
X12272035Y-16175628D01*
X12272035Y-16175628D02*
X12291083Y-16185152D01*
X12291083Y-16185152D02*
X12300607Y-16194676D01*
X12300607Y-16194676D02*
X12310131Y-16213724D01*
X12310131Y-16213724D02*
X12319654Y-16251819D01*
X12319654Y-16251819D02*
X12319654Y-16299438D01*
X12319654Y-16299438D02*
X12310131Y-16337533D01*
X12310131Y-16337533D02*
X12300607Y-16356581D01*
X12300607Y-16356581D02*
X12291083Y-16366105D01*
X12291083Y-16366105D02*
X12272035Y-16375628D01*
X12272035Y-16375628D02*
X12252988Y-16375628D01*
X12252988Y-16375628D02*
X12233940Y-16366105D01*
X12233940Y-16366105D02*
X12224416Y-16356581D01*
X12224416Y-16356581D02*
X12214893Y-16337533D01*
X12214893Y-16337533D02*
X12205369Y-16299438D01*
X12205369Y-16299438D02*
X12205369Y-16251819D01*
X12205369Y-16251819D02*
X12214893Y-16213724D01*
X12214893Y-16213724D02*
X12224416Y-16194676D01*
X12224416Y-16194676D02*
X12233940Y-16185152D01*
X12233940Y-16185152D02*
X12252988Y-16175628D01*
X12395845Y-16175628D02*
X12395845Y-16213724D01*
X12472035Y-16175628D02*
X12472035Y-16213724D01*
X12767274Y-16451819D02*
X12757750Y-16442295D01*
X12757750Y-16442295D02*
X12738702Y-16413724D01*
X12738702Y-16413724D02*
X12729178Y-16394676D01*
X12729178Y-16394676D02*
X12719655Y-16366105D01*
X12719655Y-16366105D02*
X12710131Y-16318485D01*
X12710131Y-16318485D02*
X12710131Y-16280390D01*
X12710131Y-16280390D02*
X12719655Y-16232771D01*
X12719655Y-16232771D02*
X12729178Y-16204200D01*
X12729178Y-16204200D02*
X12738702Y-16185152D01*
X12738702Y-16185152D02*
X12757750Y-16156581D01*
X12757750Y-16156581D02*
X12767274Y-16147057D01*
X12824416Y-16175628D02*
X12948226Y-16175628D01*
X12948226Y-16175628D02*
X12881559Y-16251819D01*
X12881559Y-16251819D02*
X12910131Y-16251819D01*
X12910131Y-16251819D02*
X12929178Y-16261343D01*
X12929178Y-16261343D02*
X12938702Y-16270866D01*
X12938702Y-16270866D02*
X12948226Y-16289914D01*
X12948226Y-16289914D02*
X12948226Y-16337533D01*
X12948226Y-16337533D02*
X12938702Y-16356581D01*
X12938702Y-16356581D02*
X12929178Y-16366105D01*
X12929178Y-16366105D02*
X12910131Y-16375628D01*
X12910131Y-16375628D02*
X12852988Y-16375628D01*
X12852988Y-16375628D02*
X12833940Y-16366105D01*
X12833940Y-16366105D02*
X12824416Y-16356581D01*
X13062512Y-16261343D02*
X13043464Y-16251819D01*
X13043464Y-16251819D02*
X13033940Y-16242295D01*
X13033940Y-16242295D02*
X13024416Y-16223247D01*
X13024416Y-16223247D02*
X13024416Y-16213724D01*
X13024416Y-16213724D02*
X13033940Y-16194676D01*
X13033940Y-16194676D02*
X13043464Y-16185152D01*
X13043464Y-16185152D02*
X13062512Y-16175628D01*
X13062512Y-16175628D02*
X13100607Y-16175628D01*
X13100607Y-16175628D02*
X13119655Y-16185152D01*
X13119655Y-16185152D02*
X13129178Y-16194676D01*
X13129178Y-16194676D02*
X13138702Y-16213724D01*
X13138702Y-16213724D02*
X13138702Y-16223247D01*
X13138702Y-16223247D02*
X13129178Y-16242295D01*
X13129178Y-16242295D02*
X13119655Y-16251819D01*
X13119655Y-16251819D02*
X13100607Y-16261343D01*
X13100607Y-16261343D02*
X13062512Y-16261343D01*
X13062512Y-16261343D02*
X13043464Y-16270866D01*
X13043464Y-16270866D02*
X13033940Y-16280390D01*
X13033940Y-16280390D02*
X13024416Y-16299438D01*
X13024416Y-16299438D02*
X13024416Y-16337533D01*
X13024416Y-16337533D02*
X13033940Y-16356581D01*
X13033940Y-16356581D02*
X13043464Y-16366105D01*
X13043464Y-16366105D02*
X13062512Y-16375628D01*
X13062512Y-16375628D02*
X13100607Y-16375628D01*
X13100607Y-16375628D02*
X13119655Y-16366105D01*
X13119655Y-16366105D02*
X13129178Y-16356581D01*
X13129178Y-16356581D02*
X13138702Y-16337533D01*
X13138702Y-16337533D02*
X13138702Y-16299438D01*
X13138702Y-16299438D02*
X13129178Y-16280390D01*
X13129178Y-16280390D02*
X13119655Y-16270866D01*
X13119655Y-16270866D02*
X13100607Y-16261343D01*
X13376797Y-16375628D02*
X13376797Y-16175628D01*
X13462512Y-16375628D02*
X13462512Y-16270866D01*
X13462512Y-16270866D02*
X13452988Y-16251819D01*
X13452988Y-16251819D02*
X13433940Y-16242295D01*
X13433940Y-16242295D02*
X13405369Y-16242295D01*
X13405369Y-16242295D02*
X13386321Y-16251819D01*
X13386321Y-16251819D02*
X13376797Y-16261343D01*
X13586321Y-16375628D02*
X13567274Y-16366105D01*
X13567274Y-16366105D02*
X13557750Y-16356581D01*
X13557750Y-16356581D02*
X13548226Y-16337533D01*
X13548226Y-16337533D02*
X13548226Y-16280390D01*
X13548226Y-16280390D02*
X13557750Y-16261343D01*
X13557750Y-16261343D02*
X13567274Y-16251819D01*
X13567274Y-16251819D02*
X13586321Y-16242295D01*
X13586321Y-16242295D02*
X13614893Y-16242295D01*
X13614893Y-16242295D02*
X13633940Y-16251819D01*
X13633940Y-16251819D02*
X13643464Y-16261343D01*
X13643464Y-16261343D02*
X13652988Y-16280390D01*
X13652988Y-16280390D02*
X13652988Y-16337533D01*
X13652988Y-16337533D02*
X13643464Y-16356581D01*
X13643464Y-16356581D02*
X13633940Y-16366105D01*
X13633940Y-16366105D02*
X13614893Y-16375628D01*
X13614893Y-16375628D02*
X13586321Y-16375628D01*
X13767274Y-16375628D02*
X13748226Y-16366105D01*
X13748226Y-16366105D02*
X13738702Y-16347057D01*
X13738702Y-16347057D02*
X13738702Y-16175628D01*
X13919655Y-16366105D02*
X13900607Y-16375628D01*
X13900607Y-16375628D02*
X13862512Y-16375628D01*
X13862512Y-16375628D02*
X13843464Y-16366105D01*
X13843464Y-16366105D02*
X13833940Y-16347057D01*
X13833940Y-16347057D02*
X13833940Y-16270866D01*
X13833940Y-16270866D02*
X13843464Y-16251819D01*
X13843464Y-16251819D02*
X13862512Y-16242295D01*
X13862512Y-16242295D02*
X13900607Y-16242295D01*
X13900607Y-16242295D02*
X13919655Y-16251819D01*
X13919655Y-16251819D02*
X13929178Y-16270866D01*
X13929178Y-16270866D02*
X13929178Y-16289914D01*
X13929178Y-16289914D02*
X13833940Y-16308962D01*
X14005369Y-16366105D02*
X14024417Y-16375628D01*
X14024417Y-16375628D02*
X14062512Y-16375628D01*
X14062512Y-16375628D02*
X14081559Y-16366105D01*
X14081559Y-16366105D02*
X14091083Y-16347057D01*
X14091083Y-16347057D02*
X14091083Y-16337533D01*
X14091083Y-16337533D02*
X14081559Y-16318485D01*
X14081559Y-16318485D02*
X14062512Y-16308962D01*
X14062512Y-16308962D02*
X14033940Y-16308962D01*
X14033940Y-16308962D02*
X14014893Y-16299438D01*
X14014893Y-16299438D02*
X14005369Y-16280390D01*
X14005369Y-16280390D02*
X14005369Y-16270866D01*
X14005369Y-16270866D02*
X14014893Y-16251819D01*
X14014893Y-16251819D02*
X14033940Y-16242295D01*
X14033940Y-16242295D02*
X14062512Y-16242295D01*
X14062512Y-16242295D02*
X14081559Y-16251819D01*
X14157750Y-16451819D02*
X14167274Y-16442295D01*
X14167274Y-16442295D02*
X14186321Y-16413724D01*
X14186321Y-16413724D02*
X14195845Y-16394676D01*
X14195845Y-16394676D02*
X14205369Y-16366105D01*
X14205369Y-16366105D02*
X14214893Y-16318485D01*
X14214893Y-16318485D02*
X14214893Y-16280390D01*
X14214893Y-16280390D02*
X14205369Y-16232771D01*
X14205369Y-16232771D02*
X14195845Y-16204200D01*
X14195845Y-16204200D02*
X14186321Y-16185152D01*
X14186321Y-16185152D02*
X14167274Y-16156581D01*
X14167274Y-16156581D02*
X14157750Y-16147057D01*
D12*
X9147211Y-16503145D02*
X9147211Y-16593145D01*
X9102211Y-16548145D02*
X9192211Y-16548145D01*
D11*
X9491083Y-16439628D02*
X9510131Y-16439628D01*
X9510131Y-16439628D02*
X9529178Y-16449152D01*
X9529178Y-16449152D02*
X9538702Y-16458676D01*
X9538702Y-16458676D02*
X9548226Y-16477724D01*
X9548226Y-16477724D02*
X9557750Y-16515819D01*
X9557750Y-16515819D02*
X9557750Y-16563438D01*
X9557750Y-16563438D02*
X9548226Y-16601533D01*
X9548226Y-16601533D02*
X9538702Y-16620581D01*
X9538702Y-16620581D02*
X9529178Y-16630105D01*
X9529178Y-16630105D02*
X9510131Y-16639628D01*
X9510131Y-16639628D02*
X9491083Y-16639628D01*
X9491083Y-16639628D02*
X9472035Y-16630105D01*
X9472035Y-16630105D02*
X9462511Y-16620581D01*
X9462511Y-16620581D02*
X9452988Y-16601533D01*
X9452988Y-16601533D02*
X9443464Y-16563438D01*
X9443464Y-16563438D02*
X9443464Y-16515819D01*
X9443464Y-16515819D02*
X9452988Y-16477724D01*
X9452988Y-16477724D02*
X9462511Y-16458676D01*
X9462511Y-16458676D02*
X9472035Y-16449152D01*
X9472035Y-16449152D02*
X9491083Y-16439628D01*
X9643464Y-16620581D02*
X9652988Y-16630105D01*
X9652988Y-16630105D02*
X9643464Y-16639628D01*
X9643464Y-16639628D02*
X9633940Y-16630105D01*
X9633940Y-16630105D02*
X9643464Y-16620581D01*
X9643464Y-16620581D02*
X9643464Y-16639628D01*
X9748226Y-16639628D02*
X9786321Y-16639628D01*
X9786321Y-16639628D02*
X9805369Y-16630105D01*
X9805369Y-16630105D02*
X9814892Y-16620581D01*
X9814892Y-16620581D02*
X9833940Y-16592009D01*
X9833940Y-16592009D02*
X9843464Y-16553914D01*
X9843464Y-16553914D02*
X9843464Y-16477724D01*
X9843464Y-16477724D02*
X9833940Y-16458676D01*
X9833940Y-16458676D02*
X9824416Y-16449152D01*
X9824416Y-16449152D02*
X9805369Y-16439628D01*
X9805369Y-16439628D02*
X9767273Y-16439628D01*
X9767273Y-16439628D02*
X9748226Y-16449152D01*
X9748226Y-16449152D02*
X9738702Y-16458676D01*
X9738702Y-16458676D02*
X9729178Y-16477724D01*
X9729178Y-16477724D02*
X9729178Y-16525343D01*
X9729178Y-16525343D02*
X9738702Y-16544390D01*
X9738702Y-16544390D02*
X9748226Y-16553914D01*
X9748226Y-16553914D02*
X9767273Y-16563438D01*
X9767273Y-16563438D02*
X9805369Y-16563438D01*
X9805369Y-16563438D02*
X9824416Y-16553914D01*
X9824416Y-16553914D02*
X9833940Y-16544390D01*
X9833940Y-16544390D02*
X9843464Y-16525343D01*
X9967273Y-16439628D02*
X9986321Y-16439628D01*
X9986321Y-16439628D02*
X10005369Y-16449152D01*
X10005369Y-16449152D02*
X10014892Y-16458676D01*
X10014892Y-16458676D02*
X10024416Y-16477724D01*
X10024416Y-16477724D02*
X10033940Y-16515819D01*
X10033940Y-16515819D02*
X10033940Y-16563438D01*
X10033940Y-16563438D02*
X10024416Y-16601533D01*
X10024416Y-16601533D02*
X10014892Y-16620581D01*
X10014892Y-16620581D02*
X10005369Y-16630105D01*
X10005369Y-16630105D02*
X9986321Y-16639628D01*
X9986321Y-16639628D02*
X9967273Y-16639628D01*
X9967273Y-16639628D02*
X9948226Y-16630105D01*
X9948226Y-16630105D02*
X9938702Y-16620581D01*
X9938702Y-16620581D02*
X9929178Y-16601533D01*
X9929178Y-16601533D02*
X9919654Y-16563438D01*
X9919654Y-16563438D02*
X9919654Y-16515819D01*
X9919654Y-16515819D02*
X9929178Y-16477724D01*
X9929178Y-16477724D02*
X9938702Y-16458676D01*
X9938702Y-16458676D02*
X9948226Y-16449152D01*
X9948226Y-16449152D02*
X9967273Y-16439628D01*
X10157750Y-16439628D02*
X10176797Y-16439628D01*
X10176797Y-16439628D02*
X10195845Y-16449152D01*
X10195845Y-16449152D02*
X10205369Y-16458676D01*
X10205369Y-16458676D02*
X10214892Y-16477724D01*
X10214892Y-16477724D02*
X10224416Y-16515819D01*
X10224416Y-16515819D02*
X10224416Y-16563438D01*
X10224416Y-16563438D02*
X10214892Y-16601533D01*
X10214892Y-16601533D02*
X10205369Y-16620581D01*
X10205369Y-16620581D02*
X10195845Y-16630105D01*
X10195845Y-16630105D02*
X10176797Y-16639628D01*
X10176797Y-16639628D02*
X10157750Y-16639628D01*
X10157750Y-16639628D02*
X10138702Y-16630105D01*
X10138702Y-16630105D02*
X10129178Y-16620581D01*
X10129178Y-16620581D02*
X10119654Y-16601533D01*
X10119654Y-16601533D02*
X10110131Y-16563438D01*
X10110131Y-16563438D02*
X10110131Y-16515819D01*
X10110131Y-16515819D02*
X10119654Y-16477724D01*
X10119654Y-16477724D02*
X10129178Y-16458676D01*
X10129178Y-16458676D02*
X10138702Y-16449152D01*
X10138702Y-16449152D02*
X10157750Y-16439628D01*
X10310131Y-16639628D02*
X10310131Y-16506295D01*
X10310131Y-16525343D02*
X10319654Y-16515819D01*
X10319654Y-16515819D02*
X10338702Y-16506295D01*
X10338702Y-16506295D02*
X10367273Y-16506295D01*
X10367273Y-16506295D02*
X10386321Y-16515819D01*
X10386321Y-16515819D02*
X10395845Y-16534866D01*
X10395845Y-16534866D02*
X10395845Y-16639628D01*
X10395845Y-16534866D02*
X10405369Y-16515819D01*
X10405369Y-16515819D02*
X10424416Y-16506295D01*
X10424416Y-16506295D02*
X10452988Y-16506295D01*
X10452988Y-16506295D02*
X10472035Y-16515819D01*
X10472035Y-16515819D02*
X10481559Y-16534866D01*
X10481559Y-16534866D02*
X10481559Y-16639628D01*
X10576797Y-16639628D02*
X10576797Y-16506295D01*
X10576797Y-16525343D02*
X10586321Y-16515819D01*
X10586321Y-16515819D02*
X10605369Y-16506295D01*
X10605369Y-16506295D02*
X10633940Y-16506295D01*
X10633940Y-16506295D02*
X10652988Y-16515819D01*
X10652988Y-16515819D02*
X10662512Y-16534866D01*
X10662512Y-16534866D02*
X10662512Y-16639628D01*
X10662512Y-16534866D02*
X10672035Y-16515819D01*
X10672035Y-16515819D02*
X10691083Y-16506295D01*
X10691083Y-16506295D02*
X10719654Y-16506295D01*
X10719654Y-16506295D02*
X10738702Y-16515819D01*
X10738702Y-16515819D02*
X10748226Y-16534866D01*
X10748226Y-16534866D02*
X10748226Y-16639628D01*
X11138702Y-16430105D02*
X10967274Y-16687247D01*
X11395845Y-16439628D02*
X11414893Y-16439628D01*
X11414893Y-16439628D02*
X11433940Y-16449152D01*
X11433940Y-16449152D02*
X11443464Y-16458676D01*
X11443464Y-16458676D02*
X11452988Y-16477724D01*
X11452988Y-16477724D02*
X11462512Y-16515819D01*
X11462512Y-16515819D02*
X11462512Y-16563438D01*
X11462512Y-16563438D02*
X11452988Y-16601533D01*
X11452988Y-16601533D02*
X11443464Y-16620581D01*
X11443464Y-16620581D02*
X11433940Y-16630105D01*
X11433940Y-16630105D02*
X11414893Y-16639628D01*
X11414893Y-16639628D02*
X11395845Y-16639628D01*
X11395845Y-16639628D02*
X11376797Y-16630105D01*
X11376797Y-16630105D02*
X11367273Y-16620581D01*
X11367273Y-16620581D02*
X11357750Y-16601533D01*
X11357750Y-16601533D02*
X11348226Y-16563438D01*
X11348226Y-16563438D02*
X11348226Y-16515819D01*
X11348226Y-16515819D02*
X11357750Y-16477724D01*
X11357750Y-16477724D02*
X11367273Y-16458676D01*
X11367273Y-16458676D02*
X11376797Y-16449152D01*
X11376797Y-16449152D02*
X11395845Y-16439628D01*
X11548226Y-16620581D02*
X11557750Y-16630105D01*
X11557750Y-16630105D02*
X11548226Y-16639628D01*
X11548226Y-16639628D02*
X11538702Y-16630105D01*
X11538702Y-16630105D02*
X11548226Y-16620581D01*
X11548226Y-16620581D02*
X11548226Y-16639628D01*
X11681559Y-16439628D02*
X11700607Y-16439628D01*
X11700607Y-16439628D02*
X11719654Y-16449152D01*
X11719654Y-16449152D02*
X11729178Y-16458676D01*
X11729178Y-16458676D02*
X11738702Y-16477724D01*
X11738702Y-16477724D02*
X11748226Y-16515819D01*
X11748226Y-16515819D02*
X11748226Y-16563438D01*
X11748226Y-16563438D02*
X11738702Y-16601533D01*
X11738702Y-16601533D02*
X11729178Y-16620581D01*
X11729178Y-16620581D02*
X11719654Y-16630105D01*
X11719654Y-16630105D02*
X11700607Y-16639628D01*
X11700607Y-16639628D02*
X11681559Y-16639628D01*
X11681559Y-16639628D02*
X11662512Y-16630105D01*
X11662512Y-16630105D02*
X11652988Y-16620581D01*
X11652988Y-16620581D02*
X11643464Y-16601533D01*
X11643464Y-16601533D02*
X11633940Y-16563438D01*
X11633940Y-16563438D02*
X11633940Y-16515819D01*
X11633940Y-16515819D02*
X11643464Y-16477724D01*
X11643464Y-16477724D02*
X11652988Y-16458676D01*
X11652988Y-16458676D02*
X11662512Y-16449152D01*
X11662512Y-16449152D02*
X11681559Y-16439628D01*
X11814893Y-16439628D02*
X11938702Y-16439628D01*
X11938702Y-16439628D02*
X11872035Y-16515819D01*
X11872035Y-16515819D02*
X11900607Y-16515819D01*
X11900607Y-16515819D02*
X11919654Y-16525343D01*
X11919654Y-16525343D02*
X11929178Y-16534866D01*
X11929178Y-16534866D02*
X11938702Y-16553914D01*
X11938702Y-16553914D02*
X11938702Y-16601533D01*
X11938702Y-16601533D02*
X11929178Y-16620581D01*
X11929178Y-16620581D02*
X11919654Y-16630105D01*
X11919654Y-16630105D02*
X11900607Y-16639628D01*
X11900607Y-16639628D02*
X11843464Y-16639628D01*
X11843464Y-16639628D02*
X11824416Y-16630105D01*
X11824416Y-16630105D02*
X11814893Y-16620581D01*
X12119654Y-16439628D02*
X12024416Y-16439628D01*
X12024416Y-16439628D02*
X12014893Y-16534866D01*
X12014893Y-16534866D02*
X12024416Y-16525343D01*
X12024416Y-16525343D02*
X12043464Y-16515819D01*
X12043464Y-16515819D02*
X12091083Y-16515819D01*
X12091083Y-16515819D02*
X12110131Y-16525343D01*
X12110131Y-16525343D02*
X12119654Y-16534866D01*
X12119654Y-16534866D02*
X12129178Y-16553914D01*
X12129178Y-16553914D02*
X12129178Y-16601533D01*
X12129178Y-16601533D02*
X12119654Y-16620581D01*
X12119654Y-16620581D02*
X12110131Y-16630105D01*
X12110131Y-16630105D02*
X12091083Y-16639628D01*
X12091083Y-16639628D02*
X12043464Y-16639628D01*
X12043464Y-16639628D02*
X12024416Y-16630105D01*
X12024416Y-16630105D02*
X12014893Y-16620581D01*
X12300607Y-16506295D02*
X12300607Y-16639628D01*
X12252988Y-16430105D02*
X12205369Y-16572962D01*
X12205369Y-16572962D02*
X12329178Y-16572962D01*
X12395845Y-16439628D02*
X12395845Y-16477724D01*
X12472035Y-16439628D02*
X12472035Y-16477724D01*
X12767274Y-16715819D02*
X12757750Y-16706295D01*
X12757750Y-16706295D02*
X12738702Y-16677724D01*
X12738702Y-16677724D02*
X12729178Y-16658676D01*
X12729178Y-16658676D02*
X12719655Y-16630105D01*
X12719655Y-16630105D02*
X12710131Y-16582485D01*
X12710131Y-16582485D02*
X12710131Y-16544390D01*
X12710131Y-16544390D02*
X12719655Y-16496771D01*
X12719655Y-16496771D02*
X12729178Y-16468200D01*
X12729178Y-16468200D02*
X12738702Y-16449152D01*
X12738702Y-16449152D02*
X12757750Y-16420581D01*
X12757750Y-16420581D02*
X12767274Y-16411057D01*
X12929178Y-16439628D02*
X12891083Y-16439628D01*
X12891083Y-16439628D02*
X12872035Y-16449152D01*
X12872035Y-16449152D02*
X12862512Y-16458676D01*
X12862512Y-16458676D02*
X12843464Y-16487247D01*
X12843464Y-16487247D02*
X12833940Y-16525343D01*
X12833940Y-16525343D02*
X12833940Y-16601533D01*
X12833940Y-16601533D02*
X12843464Y-16620581D01*
X12843464Y-16620581D02*
X12852988Y-16630105D01*
X12852988Y-16630105D02*
X12872035Y-16639628D01*
X12872035Y-16639628D02*
X12910131Y-16639628D01*
X12910131Y-16639628D02*
X12929178Y-16630105D01*
X12929178Y-16630105D02*
X12938702Y-16620581D01*
X12938702Y-16620581D02*
X12948226Y-16601533D01*
X12948226Y-16601533D02*
X12948226Y-16553914D01*
X12948226Y-16553914D02*
X12938702Y-16534866D01*
X12938702Y-16534866D02*
X12929178Y-16525343D01*
X12929178Y-16525343D02*
X12910131Y-16515819D01*
X12910131Y-16515819D02*
X12872035Y-16515819D01*
X12872035Y-16515819D02*
X12852988Y-16525343D01*
X12852988Y-16525343D02*
X12843464Y-16534866D01*
X12843464Y-16534866D02*
X12833940Y-16553914D01*
X13186321Y-16639628D02*
X13186321Y-16439628D01*
X13272036Y-16639628D02*
X13272036Y-16534866D01*
X13272036Y-16534866D02*
X13262512Y-16515819D01*
X13262512Y-16515819D02*
X13243464Y-16506295D01*
X13243464Y-16506295D02*
X13214893Y-16506295D01*
X13214893Y-16506295D02*
X13195845Y-16515819D01*
X13195845Y-16515819D02*
X13186321Y-16525343D01*
X13395845Y-16639628D02*
X13376797Y-16630105D01*
X13376797Y-16630105D02*
X13367274Y-16620581D01*
X13367274Y-16620581D02*
X13357750Y-16601533D01*
X13357750Y-16601533D02*
X13357750Y-16544390D01*
X13357750Y-16544390D02*
X13367274Y-16525343D01*
X13367274Y-16525343D02*
X13376797Y-16515819D01*
X13376797Y-16515819D02*
X13395845Y-16506295D01*
X13395845Y-16506295D02*
X13424417Y-16506295D01*
X13424417Y-16506295D02*
X13443464Y-16515819D01*
X13443464Y-16515819D02*
X13452988Y-16525343D01*
X13452988Y-16525343D02*
X13462512Y-16544390D01*
X13462512Y-16544390D02*
X13462512Y-16601533D01*
X13462512Y-16601533D02*
X13452988Y-16620581D01*
X13452988Y-16620581D02*
X13443464Y-16630105D01*
X13443464Y-16630105D02*
X13424417Y-16639628D01*
X13424417Y-16639628D02*
X13395845Y-16639628D01*
X13576797Y-16639628D02*
X13557750Y-16630105D01*
X13557750Y-16630105D02*
X13548226Y-16611057D01*
X13548226Y-16611057D02*
X13548226Y-16439628D01*
X13729178Y-16630105D02*
X13710131Y-16639628D01*
X13710131Y-16639628D02*
X13672036Y-16639628D01*
X13672036Y-16639628D02*
X13652988Y-16630105D01*
X13652988Y-16630105D02*
X13643464Y-16611057D01*
X13643464Y-16611057D02*
X13643464Y-16534866D01*
X13643464Y-16534866D02*
X13652988Y-16515819D01*
X13652988Y-16515819D02*
X13672036Y-16506295D01*
X13672036Y-16506295D02*
X13710131Y-16506295D01*
X13710131Y-16506295D02*
X13729178Y-16515819D01*
X13729178Y-16515819D02*
X13738702Y-16534866D01*
X13738702Y-16534866D02*
X13738702Y-16553914D01*
X13738702Y-16553914D02*
X13643464Y-16572962D01*
X13814893Y-16630105D02*
X13833940Y-16639628D01*
X13833940Y-16639628D02*
X13872036Y-16639628D01*
X13872036Y-16639628D02*
X13891083Y-16630105D01*
X13891083Y-16630105D02*
X13900607Y-16611057D01*
X13900607Y-16611057D02*
X13900607Y-16601533D01*
X13900607Y-16601533D02*
X13891083Y-16582485D01*
X13891083Y-16582485D02*
X13872036Y-16572962D01*
X13872036Y-16572962D02*
X13843464Y-16572962D01*
X13843464Y-16572962D02*
X13824417Y-16563438D01*
X13824417Y-16563438D02*
X13814893Y-16544390D01*
X13814893Y-16544390D02*
X13814893Y-16534866D01*
X13814893Y-16534866D02*
X13824417Y-16515819D01*
X13824417Y-16515819D02*
X13843464Y-16506295D01*
X13843464Y-16506295D02*
X13872036Y-16506295D01*
X13872036Y-16506295D02*
X13891083Y-16515819D01*
X13967274Y-16715819D02*
X13976798Y-16706295D01*
X13976798Y-16706295D02*
X13995845Y-16677724D01*
X13995845Y-16677724D02*
X14005369Y-16658676D01*
X14005369Y-16658676D02*
X14014893Y-16630105D01*
X14014893Y-16630105D02*
X14024417Y-16582485D01*
X14024417Y-16582485D02*
X14024417Y-16544390D01*
X14024417Y-16544390D02*
X14014893Y-16496771D01*
X14014893Y-16496771D02*
X14005369Y-16468200D01*
X14005369Y-16468200D02*
X13995845Y-16449152D01*
X13995845Y-16449152D02*
X13976798Y-16420581D01*
X13976798Y-16420581D02*
X13967274Y-16411057D01*
D12*
X9177567Y-16847500D02*
X9177567Y-16776789D01*
X9106855Y-16776789D01*
X9106855Y-16847500D01*
X9177567Y-16847500D01*
D11*
X9557750Y-16903628D02*
X9443464Y-16903628D01*
X9500607Y-16903628D02*
X9500607Y-16703628D01*
X9500607Y-16703628D02*
X9481559Y-16732200D01*
X9481559Y-16732200D02*
X9462511Y-16751247D01*
X9462511Y-16751247D02*
X9443464Y-16760771D01*
X9643464Y-16884581D02*
X9652988Y-16894105D01*
X9652988Y-16894105D02*
X9643464Y-16903628D01*
X9643464Y-16903628D02*
X9633940Y-16894105D01*
X9633940Y-16894105D02*
X9643464Y-16884581D01*
X9643464Y-16884581D02*
X9643464Y-16903628D01*
X9776797Y-16703628D02*
X9795845Y-16703628D01*
X9795845Y-16703628D02*
X9814892Y-16713152D01*
X9814892Y-16713152D02*
X9824416Y-16722676D01*
X9824416Y-16722676D02*
X9833940Y-16741724D01*
X9833940Y-16741724D02*
X9843464Y-16779819D01*
X9843464Y-16779819D02*
X9843464Y-16827438D01*
X9843464Y-16827438D02*
X9833940Y-16865533D01*
X9833940Y-16865533D02*
X9824416Y-16884581D01*
X9824416Y-16884581D02*
X9814892Y-16894105D01*
X9814892Y-16894105D02*
X9795845Y-16903628D01*
X9795845Y-16903628D02*
X9776797Y-16903628D01*
X9776797Y-16903628D02*
X9757750Y-16894105D01*
X9757750Y-16894105D02*
X9748226Y-16884581D01*
X9748226Y-16884581D02*
X9738702Y-16865533D01*
X9738702Y-16865533D02*
X9729178Y-16827438D01*
X9729178Y-16827438D02*
X9729178Y-16779819D01*
X9729178Y-16779819D02*
X9738702Y-16741724D01*
X9738702Y-16741724D02*
X9748226Y-16722676D01*
X9748226Y-16722676D02*
X9757750Y-16713152D01*
X9757750Y-16713152D02*
X9776797Y-16703628D01*
X9967273Y-16703628D02*
X9986321Y-16703628D01*
X9986321Y-16703628D02*
X10005369Y-16713152D01*
X10005369Y-16713152D02*
X10014892Y-16722676D01*
X10014892Y-16722676D02*
X10024416Y-16741724D01*
X10024416Y-16741724D02*
X10033940Y-16779819D01*
X10033940Y-16779819D02*
X10033940Y-16827438D01*
X10033940Y-16827438D02*
X10024416Y-16865533D01*
X10024416Y-16865533D02*
X10014892Y-16884581D01*
X10014892Y-16884581D02*
X10005369Y-16894105D01*
X10005369Y-16894105D02*
X9986321Y-16903628D01*
X9986321Y-16903628D02*
X9967273Y-16903628D01*
X9967273Y-16903628D02*
X9948226Y-16894105D01*
X9948226Y-16894105D02*
X9938702Y-16884581D01*
X9938702Y-16884581D02*
X9929178Y-16865533D01*
X9929178Y-16865533D02*
X9919654Y-16827438D01*
X9919654Y-16827438D02*
X9919654Y-16779819D01*
X9919654Y-16779819D02*
X9929178Y-16741724D01*
X9929178Y-16741724D02*
X9938702Y-16722676D01*
X9938702Y-16722676D02*
X9948226Y-16713152D01*
X9948226Y-16713152D02*
X9967273Y-16703628D01*
X10157750Y-16703628D02*
X10176797Y-16703628D01*
X10176797Y-16703628D02*
X10195845Y-16713152D01*
X10195845Y-16713152D02*
X10205369Y-16722676D01*
X10205369Y-16722676D02*
X10214892Y-16741724D01*
X10214892Y-16741724D02*
X10224416Y-16779819D01*
X10224416Y-16779819D02*
X10224416Y-16827438D01*
X10224416Y-16827438D02*
X10214892Y-16865533D01*
X10214892Y-16865533D02*
X10205369Y-16884581D01*
X10205369Y-16884581D02*
X10195845Y-16894105D01*
X10195845Y-16894105D02*
X10176797Y-16903628D01*
X10176797Y-16903628D02*
X10157750Y-16903628D01*
X10157750Y-16903628D02*
X10138702Y-16894105D01*
X10138702Y-16894105D02*
X10129178Y-16884581D01*
X10129178Y-16884581D02*
X10119654Y-16865533D01*
X10119654Y-16865533D02*
X10110131Y-16827438D01*
X10110131Y-16827438D02*
X10110131Y-16779819D01*
X10110131Y-16779819D02*
X10119654Y-16741724D01*
X10119654Y-16741724D02*
X10129178Y-16722676D01*
X10129178Y-16722676D02*
X10138702Y-16713152D01*
X10138702Y-16713152D02*
X10157750Y-16703628D01*
X10310131Y-16903628D02*
X10310131Y-16770295D01*
X10310131Y-16789343D02*
X10319654Y-16779819D01*
X10319654Y-16779819D02*
X10338702Y-16770295D01*
X10338702Y-16770295D02*
X10367273Y-16770295D01*
X10367273Y-16770295D02*
X10386321Y-16779819D01*
X10386321Y-16779819D02*
X10395845Y-16798867D01*
X10395845Y-16798867D02*
X10395845Y-16903628D01*
X10395845Y-16798867D02*
X10405369Y-16779819D01*
X10405369Y-16779819D02*
X10424416Y-16770295D01*
X10424416Y-16770295D02*
X10452988Y-16770295D01*
X10452988Y-16770295D02*
X10472035Y-16779819D01*
X10472035Y-16779819D02*
X10481559Y-16798867D01*
X10481559Y-16798867D02*
X10481559Y-16903628D01*
X10576797Y-16903628D02*
X10576797Y-16770295D01*
X10576797Y-16789343D02*
X10586321Y-16779819D01*
X10586321Y-16779819D02*
X10605369Y-16770295D01*
X10605369Y-16770295D02*
X10633940Y-16770295D01*
X10633940Y-16770295D02*
X10652988Y-16779819D01*
X10652988Y-16779819D02*
X10662512Y-16798867D01*
X10662512Y-16798867D02*
X10662512Y-16903628D01*
X10662512Y-16798867D02*
X10672035Y-16779819D01*
X10672035Y-16779819D02*
X10691083Y-16770295D01*
X10691083Y-16770295D02*
X10719654Y-16770295D01*
X10719654Y-16770295D02*
X10738702Y-16779819D01*
X10738702Y-16779819D02*
X10748226Y-16798867D01*
X10748226Y-16798867D02*
X10748226Y-16903628D01*
X11138702Y-16694105D02*
X10967274Y-16951247D01*
X11395845Y-16703628D02*
X11414893Y-16703628D01*
X11414893Y-16703628D02*
X11433940Y-16713152D01*
X11433940Y-16713152D02*
X11443464Y-16722676D01*
X11443464Y-16722676D02*
X11452988Y-16741724D01*
X11452988Y-16741724D02*
X11462512Y-16779819D01*
X11462512Y-16779819D02*
X11462512Y-16827438D01*
X11462512Y-16827438D02*
X11452988Y-16865533D01*
X11452988Y-16865533D02*
X11443464Y-16884581D01*
X11443464Y-16884581D02*
X11433940Y-16894105D01*
X11433940Y-16894105D02*
X11414893Y-16903628D01*
X11414893Y-16903628D02*
X11395845Y-16903628D01*
X11395845Y-16903628D02*
X11376797Y-16894105D01*
X11376797Y-16894105D02*
X11367273Y-16884581D01*
X11367273Y-16884581D02*
X11357750Y-16865533D01*
X11357750Y-16865533D02*
X11348226Y-16827438D01*
X11348226Y-16827438D02*
X11348226Y-16779819D01*
X11348226Y-16779819D02*
X11357750Y-16741724D01*
X11357750Y-16741724D02*
X11367273Y-16722676D01*
X11367273Y-16722676D02*
X11376797Y-16713152D01*
X11376797Y-16713152D02*
X11395845Y-16703628D01*
X11548226Y-16884581D02*
X11557750Y-16894105D01*
X11557750Y-16894105D02*
X11548226Y-16903628D01*
X11548226Y-16903628D02*
X11538702Y-16894105D01*
X11538702Y-16894105D02*
X11548226Y-16884581D01*
X11548226Y-16884581D02*
X11548226Y-16903628D01*
X11681559Y-16703628D02*
X11700607Y-16703628D01*
X11700607Y-16703628D02*
X11719654Y-16713152D01*
X11719654Y-16713152D02*
X11729178Y-16722676D01*
X11729178Y-16722676D02*
X11738702Y-16741724D01*
X11738702Y-16741724D02*
X11748226Y-16779819D01*
X11748226Y-16779819D02*
X11748226Y-16827438D01*
X11748226Y-16827438D02*
X11738702Y-16865533D01*
X11738702Y-16865533D02*
X11729178Y-16884581D01*
X11729178Y-16884581D02*
X11719654Y-16894105D01*
X11719654Y-16894105D02*
X11700607Y-16903628D01*
X11700607Y-16903628D02*
X11681559Y-16903628D01*
X11681559Y-16903628D02*
X11662512Y-16894105D01*
X11662512Y-16894105D02*
X11652988Y-16884581D01*
X11652988Y-16884581D02*
X11643464Y-16865533D01*
X11643464Y-16865533D02*
X11633940Y-16827438D01*
X11633940Y-16827438D02*
X11633940Y-16779819D01*
X11633940Y-16779819D02*
X11643464Y-16741724D01*
X11643464Y-16741724D02*
X11652988Y-16722676D01*
X11652988Y-16722676D02*
X11662512Y-16713152D01*
X11662512Y-16713152D02*
X11681559Y-16703628D01*
X11814893Y-16703628D02*
X11938702Y-16703628D01*
X11938702Y-16703628D02*
X11872035Y-16779819D01*
X11872035Y-16779819D02*
X11900607Y-16779819D01*
X11900607Y-16779819D02*
X11919654Y-16789343D01*
X11919654Y-16789343D02*
X11929178Y-16798867D01*
X11929178Y-16798867D02*
X11938702Y-16817914D01*
X11938702Y-16817914D02*
X11938702Y-16865533D01*
X11938702Y-16865533D02*
X11929178Y-16884581D01*
X11929178Y-16884581D02*
X11919654Y-16894105D01*
X11919654Y-16894105D02*
X11900607Y-16903628D01*
X11900607Y-16903628D02*
X11843464Y-16903628D01*
X11843464Y-16903628D02*
X11824416Y-16894105D01*
X11824416Y-16894105D02*
X11814893Y-16884581D01*
X12033940Y-16903628D02*
X12072035Y-16903628D01*
X12072035Y-16903628D02*
X12091083Y-16894105D01*
X12091083Y-16894105D02*
X12100607Y-16884581D01*
X12100607Y-16884581D02*
X12119654Y-16856009D01*
X12119654Y-16856009D02*
X12129178Y-16817914D01*
X12129178Y-16817914D02*
X12129178Y-16741724D01*
X12129178Y-16741724D02*
X12119654Y-16722676D01*
X12119654Y-16722676D02*
X12110131Y-16713152D01*
X12110131Y-16713152D02*
X12091083Y-16703628D01*
X12091083Y-16703628D02*
X12052988Y-16703628D01*
X12052988Y-16703628D02*
X12033940Y-16713152D01*
X12033940Y-16713152D02*
X12024416Y-16722676D01*
X12024416Y-16722676D02*
X12014893Y-16741724D01*
X12014893Y-16741724D02*
X12014893Y-16789343D01*
X12014893Y-16789343D02*
X12024416Y-16808390D01*
X12024416Y-16808390D02*
X12033940Y-16817914D01*
X12033940Y-16817914D02*
X12052988Y-16827438D01*
X12052988Y-16827438D02*
X12091083Y-16827438D01*
X12091083Y-16827438D02*
X12110131Y-16817914D01*
X12110131Y-16817914D02*
X12119654Y-16808390D01*
X12119654Y-16808390D02*
X12129178Y-16789343D01*
X12300607Y-16770295D02*
X12300607Y-16903628D01*
X12252988Y-16694105D02*
X12205369Y-16836962D01*
X12205369Y-16836962D02*
X12329178Y-16836962D01*
X12395845Y-16703628D02*
X12395845Y-16741724D01*
X12472035Y-16703628D02*
X12472035Y-16741724D01*
X12767274Y-16979819D02*
X12757750Y-16970295D01*
X12757750Y-16970295D02*
X12738702Y-16941724D01*
X12738702Y-16941724D02*
X12729178Y-16922676D01*
X12729178Y-16922676D02*
X12719655Y-16894105D01*
X12719655Y-16894105D02*
X12710131Y-16846486D01*
X12710131Y-16846486D02*
X12710131Y-16808390D01*
X12710131Y-16808390D02*
X12719655Y-16760771D01*
X12719655Y-16760771D02*
X12729178Y-16732200D01*
X12729178Y-16732200D02*
X12738702Y-16713152D01*
X12738702Y-16713152D02*
X12757750Y-16684581D01*
X12757750Y-16684581D02*
X12767274Y-16675057D01*
X12833940Y-16722676D02*
X12843464Y-16713152D01*
X12843464Y-16713152D02*
X12862512Y-16703628D01*
X12862512Y-16703628D02*
X12910131Y-16703628D01*
X12910131Y-16703628D02*
X12929178Y-16713152D01*
X12929178Y-16713152D02*
X12938702Y-16722676D01*
X12938702Y-16722676D02*
X12948226Y-16741724D01*
X12948226Y-16741724D02*
X12948226Y-16760771D01*
X12948226Y-16760771D02*
X12938702Y-16789343D01*
X12938702Y-16789343D02*
X12824416Y-16903628D01*
X12824416Y-16903628D02*
X12948226Y-16903628D01*
X13186321Y-16903628D02*
X13186321Y-16703628D01*
X13272036Y-16903628D02*
X13272036Y-16798867D01*
X13272036Y-16798867D02*
X13262512Y-16779819D01*
X13262512Y-16779819D02*
X13243464Y-16770295D01*
X13243464Y-16770295D02*
X13214893Y-16770295D01*
X13214893Y-16770295D02*
X13195845Y-16779819D01*
X13195845Y-16779819D02*
X13186321Y-16789343D01*
X13395845Y-16903628D02*
X13376797Y-16894105D01*
X13376797Y-16894105D02*
X13367274Y-16884581D01*
X13367274Y-16884581D02*
X13357750Y-16865533D01*
X13357750Y-16865533D02*
X13357750Y-16808390D01*
X13357750Y-16808390D02*
X13367274Y-16789343D01*
X13367274Y-16789343D02*
X13376797Y-16779819D01*
X13376797Y-16779819D02*
X13395845Y-16770295D01*
X13395845Y-16770295D02*
X13424417Y-16770295D01*
X13424417Y-16770295D02*
X13443464Y-16779819D01*
X13443464Y-16779819D02*
X13452988Y-16789343D01*
X13452988Y-16789343D02*
X13462512Y-16808390D01*
X13462512Y-16808390D02*
X13462512Y-16865533D01*
X13462512Y-16865533D02*
X13452988Y-16884581D01*
X13452988Y-16884581D02*
X13443464Y-16894105D01*
X13443464Y-16894105D02*
X13424417Y-16903628D01*
X13424417Y-16903628D02*
X13395845Y-16903628D01*
X13576797Y-16903628D02*
X13557750Y-16894105D01*
X13557750Y-16894105D02*
X13548226Y-16875057D01*
X13548226Y-16875057D02*
X13548226Y-16703628D01*
X13729178Y-16894105D02*
X13710131Y-16903628D01*
X13710131Y-16903628D02*
X13672036Y-16903628D01*
X13672036Y-16903628D02*
X13652988Y-16894105D01*
X13652988Y-16894105D02*
X13643464Y-16875057D01*
X13643464Y-16875057D02*
X13643464Y-16798867D01*
X13643464Y-16798867D02*
X13652988Y-16779819D01*
X13652988Y-16779819D02*
X13672036Y-16770295D01*
X13672036Y-16770295D02*
X13710131Y-16770295D01*
X13710131Y-16770295D02*
X13729178Y-16779819D01*
X13729178Y-16779819D02*
X13738702Y-16798867D01*
X13738702Y-16798867D02*
X13738702Y-16817914D01*
X13738702Y-16817914D02*
X13643464Y-16836962D01*
X13814893Y-16894105D02*
X13833940Y-16903628D01*
X13833940Y-16903628D02*
X13872036Y-16903628D01*
X13872036Y-16903628D02*
X13891083Y-16894105D01*
X13891083Y-16894105D02*
X13900607Y-16875057D01*
X13900607Y-16875057D02*
X13900607Y-16865533D01*
X13900607Y-16865533D02*
X13891083Y-16846486D01*
X13891083Y-16846486D02*
X13872036Y-16836962D01*
X13872036Y-16836962D02*
X13843464Y-16836962D01*
X13843464Y-16836962D02*
X13824417Y-16827438D01*
X13824417Y-16827438D02*
X13814893Y-16808390D01*
X13814893Y-16808390D02*
X13814893Y-16798867D01*
X13814893Y-16798867D02*
X13824417Y-16779819D01*
X13824417Y-16779819D02*
X13843464Y-16770295D01*
X13843464Y-16770295D02*
X13872036Y-16770295D01*
X13872036Y-16770295D02*
X13891083Y-16779819D01*
X13967274Y-16979819D02*
X13976798Y-16970295D01*
X13976798Y-16970295D02*
X13995845Y-16941724D01*
X13995845Y-16941724D02*
X14005369Y-16922676D01*
X14005369Y-16922676D02*
X14014893Y-16894105D01*
X14014893Y-16894105D02*
X14024417Y-16846486D01*
X14024417Y-16846486D02*
X14024417Y-16808390D01*
X14024417Y-16808390D02*
X14014893Y-16760771D01*
X14014893Y-16760771D02*
X14005369Y-16732200D01*
X14005369Y-16732200D02*
X13995845Y-16713152D01*
X13995845Y-16713152D02*
X13976798Y-16684581D01*
X13976798Y-16684581D02*
X13967274Y-16675057D01*
D13*
X9132211Y-17136145D02*
X9192211Y-17076145D01*
X9132211Y-17016145D01*
X9072211Y-17076145D01*
X9132211Y-17136145D01*
D11*
X9557750Y-17167628D02*
X9443464Y-17167628D01*
X9500607Y-17167628D02*
X9500607Y-16967628D01*
X9500607Y-16967628D02*
X9481559Y-16996200D01*
X9481559Y-16996200D02*
X9462511Y-17015247D01*
X9462511Y-17015247D02*
X9443464Y-17024771D01*
X9643464Y-17148581D02*
X9652988Y-17158105D01*
X9652988Y-17158105D02*
X9643464Y-17167628D01*
X9643464Y-17167628D02*
X9633940Y-17158105D01*
X9633940Y-17158105D02*
X9643464Y-17148581D01*
X9643464Y-17148581D02*
X9643464Y-17167628D01*
X9729178Y-16986676D02*
X9738702Y-16977152D01*
X9738702Y-16977152D02*
X9757750Y-16967628D01*
X9757750Y-16967628D02*
X9805369Y-16967628D01*
X9805369Y-16967628D02*
X9824416Y-16977152D01*
X9824416Y-16977152D02*
X9833940Y-16986676D01*
X9833940Y-16986676D02*
X9843464Y-17005724D01*
X9843464Y-17005724D02*
X9843464Y-17024771D01*
X9843464Y-17024771D02*
X9833940Y-17053343D01*
X9833940Y-17053343D02*
X9719654Y-17167628D01*
X9719654Y-17167628D02*
X9843464Y-17167628D01*
X9967273Y-16967628D02*
X9986321Y-16967628D01*
X9986321Y-16967628D02*
X10005369Y-16977152D01*
X10005369Y-16977152D02*
X10014892Y-16986676D01*
X10014892Y-16986676D02*
X10024416Y-17005724D01*
X10024416Y-17005724D02*
X10033940Y-17043819D01*
X10033940Y-17043819D02*
X10033940Y-17091438D01*
X10033940Y-17091438D02*
X10024416Y-17129533D01*
X10024416Y-17129533D02*
X10014892Y-17148581D01*
X10014892Y-17148581D02*
X10005369Y-17158105D01*
X10005369Y-17158105D02*
X9986321Y-17167628D01*
X9986321Y-17167628D02*
X9967273Y-17167628D01*
X9967273Y-17167628D02*
X9948226Y-17158105D01*
X9948226Y-17158105D02*
X9938702Y-17148581D01*
X9938702Y-17148581D02*
X9929178Y-17129533D01*
X9929178Y-17129533D02*
X9919654Y-17091438D01*
X9919654Y-17091438D02*
X9919654Y-17043819D01*
X9919654Y-17043819D02*
X9929178Y-17005724D01*
X9929178Y-17005724D02*
X9938702Y-16986676D01*
X9938702Y-16986676D02*
X9948226Y-16977152D01*
X9948226Y-16977152D02*
X9967273Y-16967628D01*
X10157750Y-16967628D02*
X10176797Y-16967628D01*
X10176797Y-16967628D02*
X10195845Y-16977152D01*
X10195845Y-16977152D02*
X10205369Y-16986676D01*
X10205369Y-16986676D02*
X10214892Y-17005724D01*
X10214892Y-17005724D02*
X10224416Y-17043819D01*
X10224416Y-17043819D02*
X10224416Y-17091438D01*
X10224416Y-17091438D02*
X10214892Y-17129533D01*
X10214892Y-17129533D02*
X10205369Y-17148581D01*
X10205369Y-17148581D02*
X10195845Y-17158105D01*
X10195845Y-17158105D02*
X10176797Y-17167628D01*
X10176797Y-17167628D02*
X10157750Y-17167628D01*
X10157750Y-17167628D02*
X10138702Y-17158105D01*
X10138702Y-17158105D02*
X10129178Y-17148581D01*
X10129178Y-17148581D02*
X10119654Y-17129533D01*
X10119654Y-17129533D02*
X10110131Y-17091438D01*
X10110131Y-17091438D02*
X10110131Y-17043819D01*
X10110131Y-17043819D02*
X10119654Y-17005724D01*
X10119654Y-17005724D02*
X10129178Y-16986676D01*
X10129178Y-16986676D02*
X10138702Y-16977152D01*
X10138702Y-16977152D02*
X10157750Y-16967628D01*
X10310131Y-17167628D02*
X10310131Y-17034295D01*
X10310131Y-17053343D02*
X10319654Y-17043819D01*
X10319654Y-17043819D02*
X10338702Y-17034295D01*
X10338702Y-17034295D02*
X10367273Y-17034295D01*
X10367273Y-17034295D02*
X10386321Y-17043819D01*
X10386321Y-17043819D02*
X10395845Y-17062867D01*
X10395845Y-17062867D02*
X10395845Y-17167628D01*
X10395845Y-17062867D02*
X10405369Y-17043819D01*
X10405369Y-17043819D02*
X10424416Y-17034295D01*
X10424416Y-17034295D02*
X10452988Y-17034295D01*
X10452988Y-17034295D02*
X10472035Y-17043819D01*
X10472035Y-17043819D02*
X10481559Y-17062867D01*
X10481559Y-17062867D02*
X10481559Y-17167628D01*
X10576797Y-17167628D02*
X10576797Y-17034295D01*
X10576797Y-17053343D02*
X10586321Y-17043819D01*
X10586321Y-17043819D02*
X10605369Y-17034295D01*
X10605369Y-17034295D02*
X10633940Y-17034295D01*
X10633940Y-17034295D02*
X10652988Y-17043819D01*
X10652988Y-17043819D02*
X10662512Y-17062867D01*
X10662512Y-17062867D02*
X10662512Y-17167628D01*
X10662512Y-17062867D02*
X10672035Y-17043819D01*
X10672035Y-17043819D02*
X10691083Y-17034295D01*
X10691083Y-17034295D02*
X10719654Y-17034295D01*
X10719654Y-17034295D02*
X10738702Y-17043819D01*
X10738702Y-17043819D02*
X10748226Y-17062867D01*
X10748226Y-17062867D02*
X10748226Y-17167628D01*
X11138702Y-16958105D02*
X10967274Y-17215247D01*
X11395845Y-16967628D02*
X11414893Y-16967628D01*
X11414893Y-16967628D02*
X11433940Y-16977152D01*
X11433940Y-16977152D02*
X11443464Y-16986676D01*
X11443464Y-16986676D02*
X11452988Y-17005724D01*
X11452988Y-17005724D02*
X11462512Y-17043819D01*
X11462512Y-17043819D02*
X11462512Y-17091438D01*
X11462512Y-17091438D02*
X11452988Y-17129533D01*
X11452988Y-17129533D02*
X11443464Y-17148581D01*
X11443464Y-17148581D02*
X11433940Y-17158105D01*
X11433940Y-17158105D02*
X11414893Y-17167628D01*
X11414893Y-17167628D02*
X11395845Y-17167628D01*
X11395845Y-17167628D02*
X11376797Y-17158105D01*
X11376797Y-17158105D02*
X11367273Y-17148581D01*
X11367273Y-17148581D02*
X11357750Y-17129533D01*
X11357750Y-17129533D02*
X11348226Y-17091438D01*
X11348226Y-17091438D02*
X11348226Y-17043819D01*
X11348226Y-17043819D02*
X11357750Y-17005724D01*
X11357750Y-17005724D02*
X11367273Y-16986676D01*
X11367273Y-16986676D02*
X11376797Y-16977152D01*
X11376797Y-16977152D02*
X11395845Y-16967628D01*
X11548226Y-17148581D02*
X11557750Y-17158105D01*
X11557750Y-17158105D02*
X11548226Y-17167628D01*
X11548226Y-17167628D02*
X11538702Y-17158105D01*
X11538702Y-17158105D02*
X11548226Y-17148581D01*
X11548226Y-17148581D02*
X11548226Y-17167628D01*
X11681559Y-16967628D02*
X11700607Y-16967628D01*
X11700607Y-16967628D02*
X11719654Y-16977152D01*
X11719654Y-16977152D02*
X11729178Y-16986676D01*
X11729178Y-16986676D02*
X11738702Y-17005724D01*
X11738702Y-17005724D02*
X11748226Y-17043819D01*
X11748226Y-17043819D02*
X11748226Y-17091438D01*
X11748226Y-17091438D02*
X11738702Y-17129533D01*
X11738702Y-17129533D02*
X11729178Y-17148581D01*
X11729178Y-17148581D02*
X11719654Y-17158105D01*
X11719654Y-17158105D02*
X11700607Y-17167628D01*
X11700607Y-17167628D02*
X11681559Y-17167628D01*
X11681559Y-17167628D02*
X11662512Y-17158105D01*
X11662512Y-17158105D02*
X11652988Y-17148581D01*
X11652988Y-17148581D02*
X11643464Y-17129533D01*
X11643464Y-17129533D02*
X11633940Y-17091438D01*
X11633940Y-17091438D02*
X11633940Y-17043819D01*
X11633940Y-17043819D02*
X11643464Y-17005724D01*
X11643464Y-17005724D02*
X11652988Y-16986676D01*
X11652988Y-16986676D02*
X11662512Y-16977152D01*
X11662512Y-16977152D02*
X11681559Y-16967628D01*
X11919654Y-17034295D02*
X11919654Y-17167628D01*
X11872035Y-16958105D02*
X11824416Y-17100962D01*
X11824416Y-17100962D02*
X11948226Y-17100962D01*
X12005369Y-16967628D02*
X12138702Y-16967628D01*
X12138702Y-16967628D02*
X12052988Y-17167628D01*
X12205369Y-16986676D02*
X12214893Y-16977152D01*
X12214893Y-16977152D02*
X12233940Y-16967628D01*
X12233940Y-16967628D02*
X12281559Y-16967628D01*
X12281559Y-16967628D02*
X12300607Y-16977152D01*
X12300607Y-16977152D02*
X12310131Y-16986676D01*
X12310131Y-16986676D02*
X12319654Y-17005724D01*
X12319654Y-17005724D02*
X12319654Y-17024771D01*
X12319654Y-17024771D02*
X12310131Y-17053343D01*
X12310131Y-17053343D02*
X12195845Y-17167628D01*
X12195845Y-17167628D02*
X12319654Y-17167628D01*
X12395845Y-16967628D02*
X12395845Y-17005724D01*
X12472035Y-16967628D02*
X12472035Y-17005724D01*
X12767274Y-17243819D02*
X12757750Y-17234295D01*
X12757750Y-17234295D02*
X12738702Y-17205724D01*
X12738702Y-17205724D02*
X12729178Y-17186676D01*
X12729178Y-17186676D02*
X12719655Y-17158105D01*
X12719655Y-17158105D02*
X12710131Y-17110486D01*
X12710131Y-17110486D02*
X12710131Y-17072390D01*
X12710131Y-17072390D02*
X12719655Y-17024771D01*
X12719655Y-17024771D02*
X12729178Y-16996200D01*
X12729178Y-16996200D02*
X12738702Y-16977152D01*
X12738702Y-16977152D02*
X12757750Y-16948581D01*
X12757750Y-16948581D02*
X12767274Y-16939057D01*
X12872035Y-17053343D02*
X12852988Y-17043819D01*
X12852988Y-17043819D02*
X12843464Y-17034295D01*
X12843464Y-17034295D02*
X12833940Y-17015247D01*
X12833940Y-17015247D02*
X12833940Y-17005724D01*
X12833940Y-17005724D02*
X12843464Y-16986676D01*
X12843464Y-16986676D02*
X12852988Y-16977152D01*
X12852988Y-16977152D02*
X12872035Y-16967628D01*
X12872035Y-16967628D02*
X12910131Y-16967628D01*
X12910131Y-16967628D02*
X12929178Y-16977152D01*
X12929178Y-16977152D02*
X12938702Y-16986676D01*
X12938702Y-16986676D02*
X12948226Y-17005724D01*
X12948226Y-17005724D02*
X12948226Y-17015247D01*
X12948226Y-17015247D02*
X12938702Y-17034295D01*
X12938702Y-17034295D02*
X12929178Y-17043819D01*
X12929178Y-17043819D02*
X12910131Y-17053343D01*
X12910131Y-17053343D02*
X12872035Y-17053343D01*
X12872035Y-17053343D02*
X12852988Y-17062867D01*
X12852988Y-17062867D02*
X12843464Y-17072390D01*
X12843464Y-17072390D02*
X12833940Y-17091438D01*
X12833940Y-17091438D02*
X12833940Y-17129533D01*
X12833940Y-17129533D02*
X12843464Y-17148581D01*
X12843464Y-17148581D02*
X12852988Y-17158105D01*
X12852988Y-17158105D02*
X12872035Y-17167628D01*
X12872035Y-17167628D02*
X12910131Y-17167628D01*
X12910131Y-17167628D02*
X12929178Y-17158105D01*
X12929178Y-17158105D02*
X12938702Y-17148581D01*
X12938702Y-17148581D02*
X12948226Y-17129533D01*
X12948226Y-17129533D02*
X12948226Y-17091438D01*
X12948226Y-17091438D02*
X12938702Y-17072390D01*
X12938702Y-17072390D02*
X12929178Y-17062867D01*
X12929178Y-17062867D02*
X12910131Y-17053343D01*
X13186321Y-17167628D02*
X13186321Y-16967628D01*
X13272036Y-17167628D02*
X13272036Y-17062867D01*
X13272036Y-17062867D02*
X13262512Y-17043819D01*
X13262512Y-17043819D02*
X13243464Y-17034295D01*
X13243464Y-17034295D02*
X13214893Y-17034295D01*
X13214893Y-17034295D02*
X13195845Y-17043819D01*
X13195845Y-17043819D02*
X13186321Y-17053343D01*
X13395845Y-17167628D02*
X13376797Y-17158105D01*
X13376797Y-17158105D02*
X13367274Y-17148581D01*
X13367274Y-17148581D02*
X13357750Y-17129533D01*
X13357750Y-17129533D02*
X13357750Y-17072390D01*
X13357750Y-17072390D02*
X13367274Y-17053343D01*
X13367274Y-17053343D02*
X13376797Y-17043819D01*
X13376797Y-17043819D02*
X13395845Y-17034295D01*
X13395845Y-17034295D02*
X13424417Y-17034295D01*
X13424417Y-17034295D02*
X13443464Y-17043819D01*
X13443464Y-17043819D02*
X13452988Y-17053343D01*
X13452988Y-17053343D02*
X13462512Y-17072390D01*
X13462512Y-17072390D02*
X13462512Y-17129533D01*
X13462512Y-17129533D02*
X13452988Y-17148581D01*
X13452988Y-17148581D02*
X13443464Y-17158105D01*
X13443464Y-17158105D02*
X13424417Y-17167628D01*
X13424417Y-17167628D02*
X13395845Y-17167628D01*
X13576797Y-17167628D02*
X13557750Y-17158105D01*
X13557750Y-17158105D02*
X13548226Y-17139057D01*
X13548226Y-17139057D02*
X13548226Y-16967628D01*
X13729178Y-17158105D02*
X13710131Y-17167628D01*
X13710131Y-17167628D02*
X13672036Y-17167628D01*
X13672036Y-17167628D02*
X13652988Y-17158105D01*
X13652988Y-17158105D02*
X13643464Y-17139057D01*
X13643464Y-17139057D02*
X13643464Y-17062867D01*
X13643464Y-17062867D02*
X13652988Y-17043819D01*
X13652988Y-17043819D02*
X13672036Y-17034295D01*
X13672036Y-17034295D02*
X13710131Y-17034295D01*
X13710131Y-17034295D02*
X13729178Y-17043819D01*
X13729178Y-17043819D02*
X13738702Y-17062867D01*
X13738702Y-17062867D02*
X13738702Y-17081914D01*
X13738702Y-17081914D02*
X13643464Y-17100962D01*
X13814893Y-17158105D02*
X13833940Y-17167628D01*
X13833940Y-17167628D02*
X13872036Y-17167628D01*
X13872036Y-17167628D02*
X13891083Y-17158105D01*
X13891083Y-17158105D02*
X13900607Y-17139057D01*
X13900607Y-17139057D02*
X13900607Y-17129533D01*
X13900607Y-17129533D02*
X13891083Y-17110486D01*
X13891083Y-17110486D02*
X13872036Y-17100962D01*
X13872036Y-17100962D02*
X13843464Y-17100962D01*
X13843464Y-17100962D02*
X13824417Y-17091438D01*
X13824417Y-17091438D02*
X13814893Y-17072390D01*
X13814893Y-17072390D02*
X13814893Y-17062867D01*
X13814893Y-17062867D02*
X13824417Y-17043819D01*
X13824417Y-17043819D02*
X13843464Y-17034295D01*
X13843464Y-17034295D02*
X13872036Y-17034295D01*
X13872036Y-17034295D02*
X13891083Y-17043819D01*
X13967274Y-17243819D02*
X13976798Y-17234295D01*
X13976798Y-17234295D02*
X13995845Y-17205724D01*
X13995845Y-17205724D02*
X14005369Y-17186676D01*
X14005369Y-17186676D02*
X14014893Y-17158105D01*
X14014893Y-17158105D02*
X14024417Y-17110486D01*
X14024417Y-17110486D02*
X14024417Y-17072390D01*
X14024417Y-17072390D02*
X14014893Y-17024771D01*
X14014893Y-17024771D02*
X14005369Y-16996200D01*
X14005369Y-16996200D02*
X13995845Y-16977152D01*
X13995845Y-16977152D02*
X13976798Y-16948581D01*
X13976798Y-16948581D02*
X13967274Y-16939057D01*
M02*
